<svg width="1451" height="2566" viewBox="0 0 1451 2566" fill="none" xmlns="http://www.w3.org/2000/svg">
<path d="M760.976 2549C765.776 2346.22 765.805 2155.43 761.135 1953.07C769.172 2153.03 775.532 2353.07 780.273 2553.18C780.38 2557.7 777.347 2561.7 772.961 2562.82V2562.82C766.705 2564.41 760.665 2559.57 760.854 2553.12L760.976 2549Z" fill="url(#paint0_linear_699_2281)"/>
<path d="M852.571 2560.91C849.599 2560.91 847.155 2558.57 847.027 2555.6C846.693 2547.81 846.356 2540.02 846.005 2532.23C843.585 2478.49 840.825 2424.78 837.725 2371.11C834.635 2317.43 831.185 2263.67 827.405 2210.01C838.197 2324.95 848.409 2439.9 858.099 2554.9C858.372 2558.13 855.818 2560.91 852.571 2560.91V2560.91Z" fill="url(#paint1_linear_699_2281)"/>
<path d="M902.977 2545.5C899.337 2503.56 896.597 2477.06 892.557 2435.17C887.377 2381.62 881.867 2328.13 876.017 2274.68C870.177 2221.25 863.987 2167.85 857.457 2114.42C844.397 2007.6 829.997 1901.01 814.257 1794.66C848.467 2006.91 880.777 2219.49 911.177 2432.38C916.632 2470.61 922.015 2508.86 927.348 2547.12C928.363 2554.4 922.707 2560.9 915.354 2560.9V2560.9C909 2560.9 903.726 2555.99 903.273 2549.65L902.977 2545.5Z" fill="url(#paint2_linear_699_2281)"/>
<path d="M998.276 2560.91C995.323 2560.91 992.81 2558.76 992.356 2555.84C990.035 2540.94 987.696 2526.04 985.325 2511.16C968.385 2404.83 950.105 2298.79 930.505 2193.05C955.676 2313.14 980.212 2433.38 1004.15 2553.75C1004.89 2557.46 1002.05 2560.91 998.276 2560.91V2560.91Z" fill="url(#paint3_linear_699_2281)"/>
<path d="M1070.48 2560.91C1064.57 2560.91 1059.48 2556.76 1058.28 2550.98C1050.62 2514.08 1042.81 2477.22 1034.82 2440.38C989.195 2229.96 938.356 2021.15 882.146 1813.4C941.126 2020.16 998.255 2227.5 1053.51 2435.34C1063.24 2471.97 1072.91 2508.63 1082.52 2545.3C1084.59 2553.19 1078.64 2560.91 1070.48 2560.91V2560.91Z" fill="url(#paint4_linear_699_2281)"/>
<path d="M1237.78 2549.29C1239.92 2554.9 1235.78 2560.91 1229.78 2560.91V2560.91C1226.09 2560.91 1222.81 2558.54 1221.65 2555.03C1169.35 2396.7 1113.93 2239.34 1055.51 2083.34C1117.35 2238.2 1178.09 2393.54 1237.78 2549.29Z" fill="url(#paint5_linear_699_2281)"/>
<path d="M1310.14 2560.91C1304.31 2560.91 1299.09 2557.33 1296.99 2551.9C1199.67 2300.81 1094.51 2053.02 981.636 1808.87C1098.19 2051.68 1211.96 2295.71 1322.98 2541.01C1327.2 2550.34 1320.38 2560.91 1310.14 2560.91V2560.91Z" fill="url(#paint6_linear_699_2281)"/>
<path d="M1405.03 2560.91C1401.81 2560.91 1398.9 2559.04 1397.55 2556.12C1334.15 2418.18 1268.35 2281.43 1200.14 2145.93C1271.7 2279.77 1342.45 2414.13 1412.33 2548.91C1415.16 2554.38 1411.19 2560.91 1405.03 2560.91V2560.91Z" fill="url(#paint7_linear_699_2281)"/>
<path d="M1162.33 1978.39C1256.85 2131.85 1350.22 2286.07 1442.45 2440.98C1443.3 2442.4 1443.74 2444.03 1443.74 2445.68V2445.68C1443.74 2455.28 1430.87 2458.48 1426.36 2450.01C1341.67 2290.95 1253.55 2133.55 1162.33 1978.39Z" fill="url(#paint8_linear_699_2281)"/>
<path d="M1390.68 2260C1334.09 2168.42 1276.39 2077.62 1217.59 1987.6C1188.19 1942.59 1158.52 1897.79 1128.56 1853.16C1098.57 1808.49 1068.31 1764.02 1037.78 1719.74C1174.39 1912.23 1309.06 2105.99 1441.83 2301.06C1443.07 2302.89 1443.74 2305.05 1443.74 2307.26V2307.26C1443.74 2318.41 1429.06 2322.53 1423.24 2313.01C1412.43 2295.31 1401.57 2277.64 1390.68 2260Z" fill="url(#paint9_linear_699_2281)"/>
<path d="M1393.49 2018.33C1324.11 1936.03 1253.74 1854.65 1182.4 1774.2C1269.58 1869.23 1356.25 1964.74 1442.43 2060.71C1443.28 2061.65 1443.75 2062.87 1443.75 2064.14V2064.14C1443.75 2068.94 1437.74 2071.11 1434.66 2067.42C1420.98 2051.03 1407.26 2034.66 1393.49 2018.33Z" fill="url(#paint10_linear_699_2281)"/>
<path d="M1120.91 1618.79C1228.48 1711.11 1335.52 1804.11 1442.03 1897.72C1443.12 1898.68 1443.75 1900.06 1443.75 1901.51V1901.51C1443.75 1905.93 1438.46 1908.21 1435.25 1905.18C1410.36 1881.73 1385.38 1858.39 1360.32 1835.16C1281.42 1762.03 1201.57 1689.87 1120.92 1618.79H1120.91Z" fill="url(#paint11_linear_699_2281)"/>
<path d="M1317.51 1681.21C1273.69 1650.01 1229.68 1619.08 1185.5 1588.45C1271.34 1646.22 1356.93 1704.38 1442.29 1762.89C1443.2 1763.52 1443.75 1764.55 1443.75 1765.66V1765.66C1443.75 1768.41 1440.63 1769.99 1438.41 1768.37C1420.01 1754.94 1401.57 1741.55 1383.11 1728.23C1361.29 1712.49 1339.43 1696.81 1317.52 1681.21H1317.51Z" fill="url(#paint12_linear_699_2281)"/>
<path d="M1259 1520.28C1320.28 1547.89 1381.47 1575.69 1442.6 1603.65C1443.3 1603.97 1443.74 1604.67 1443.74 1605.44V1605.44C1443.74 1606.9 1442.22 1607.85 1440.92 1607.21C1428.85 1601.32 1416.78 1595.46 1404.7 1589.62C1356.27 1566.2 1307.7 1543.08 1259 1520.29V1520.28Z" fill="url(#paint13_linear_699_2281)"/>
<path d="M1244.18 1416.96C1310.3 1434.01 1376.34 1451.27 1442.34 1468.69C1443.17 1468.91 1443.74 1469.66 1443.74 1470.51V1470.51C1443.74 1471.76 1442.54 1472.66 1441.34 1472.31C1375.77 1453.33 1310.05 1434.87 1244.18 1416.96Z" fill="url(#paint14_linear_699_2281)"/>
<path d="M1441.72 1289C1442.84 1289 1443.75 1289.91 1443.75 1291.02V1291.02C1443.75 1292.1 1442.85 1292.97 1441.77 1292.93C1375.31 1290.49 1308.86 1288.11 1242.41 1286.69C1309.52 1287.22 1373.37 1288.11 1440.48 1289H1441.72Z" fill="url(#paint15_linear_699_2281)"/>
<path d="M1443.74 943.336C1443.74 944.354 1443.14 945.276 1442.21 945.687C1363.22 980.492 1284.59 1016.09 1206.33 1052.48C1284.1 1015.05 1362.03 977.894 1440.08 941.013C1441.78 940.208 1443.74 941.451 1443.74 943.336V943.336Z" fill="url(#paint16_linear_699_2281)"/>
<path d="M1444.41 1394.71C1444.28 1393.7 1443.54 1392.86 1442.56 1392.57C1360.38 1368.76 1330.57 1366.68 1248.23 1340.89C1330.21 1367.77 1360.48 1371.9 1441.05 1397.48C1442.84 1398.05 1444.66 1396.58 1444.41 1394.71V1394.71Z" fill="url(#paint17_linear_699_2281)"/>
<path d="M1442.46 1168.39C1441.85 1167.58 1440.78 1167.21 1439.79 1167.45C1356.55 1187.22 1329.59 1200.1 1245.23 1218.24C1329.81 1201.23 1358.18 1189.91 1440.9 1172.47C1442.74 1172.08 1443.6 1169.89 1442.46 1168.39V1168.39Z" fill="url(#paint18_linear_699_2281)"/>
<path d="M1448.46 1059.39C1447.85 1058.58 1446.78 1058.21 1445.79 1058.45C1362.55 1078.22 1335.59 1091.1 1251.23 1109.24C1335.81 1092.23 1364.18 1080.91 1446.9 1063.47C1448.74 1063.08 1449.6 1060.89 1448.46 1059.39V1059.39Z" fill="url(#paint19_linear_699_2281)"/>
<path d="M1430.33 830.908C1429.22 830.048 1427.68 829.939 1426.45 830.604C1322.88 886.53 1291.64 913.241 1186 967.395C1292.33 914.663 1326.01 889.515 1429.7 836.881C1432.01 835.708 1432.37 832.502 1430.33 830.908V830.908Z" fill="url(#paint20_linear_699_2281)"/>
<path d="M14.4004 915.908C15.5056 915.048 17.0482 914.939 18.2808 915.604C121.852 971.53 153.091 998.241 258.73 1052.39C152.398 999.663 118.724 974.515 15.0269 921.881C12.715 920.708 12.3551 917.502 14.4004 915.908V915.908Z" fill="url(#paint21_linear_699_2281)"/>
<path d="M1443.75 699.254C1443.75 700.738 1443.05 702.136 1441.87 703.033C1419.35 720.131 1396.87 737.288 1374.47 754.529C1289.23 820.109 1204.74 886.809 1121.21 954.479C1225.64 867.593 1330.58 781.289 1436.01 695.574C1439.11 693.055 1443.75 695.261 1443.75 699.254V699.254Z" fill="url(#paint22_linear_699_2281)"/>
<path d="M1443.75 546.126C1443.75 547.82 1443.05 549.439 1441.82 550.606C1326.45 660.159 1213.17 771.761 1101.9 885.549C1211.54 770.249 1321.97 655.673 1433.15 541.811C1437.02 537.85 1443.75 540.589 1443.75 546.126V546.126Z" fill="url(#paint23_linear_699_2281)"/>
<path d="M1443.75 360.341C1376.78 438.991 1310.79 518.391 1245.81 598.531C1308.68 517.443 1372.58 435.611 1436.21 354.972C1438.93 351.522 1444.48 353.551 1444.48 357.946V357.946C1444.48 358.796 1444.22 359.636 1443.75 360.341V360.341Z" fill="url(#paint24_linear_699_2281)"/>
<path d="M1431.48 241.5C1435.93 235.885 1444.98 239.038 1444.98 246.208V249.778C1444.98 256.151 1442.87 262.357 1438.72 267.196C1434.93 271.614 1431.01 276.033 1427.6 280.46C1361.83 365.67 1297.18 451.65 1233.64 538.38C1201.89 581.72 1170.37 625.33 1139.12 669.13C1107.88 712.93 1076.92 756.91 1046.25 801.07C1166.3 622.7 1287.96 445.37 1411.22 269.12C1422.04 253.64 1420.63 256.96 1431.48 241.5V241.5Z" fill="url(#paint25_linear_699_2281)"/>
<path d="M1443.75 114.257C1443.75 115.62 1443.33 116.951 1442.56 118.072C1429.95 136.349 1417.37 154.646 1404.86 172.98C1344.21 261.84 1284.6 351.6 1226.23 441.94C1294 331.164 1362.37 220.754 1431.35 110.691C1434.93 104.979 1443.75 107.516 1443.75 114.257V114.257Z" fill="url(#paint26_linear_699_2281)"/>
<path d="M1412.48 28.4998C1357.26 116.92 1314.6 189.69 1261.55 279.48C1206.8 372.14 1153.25 465.43 1100.92 559.33C1197.22 377.88 1295.11 197.245 1394.54 17.4327C1396.39 14.0925 1399.9 12.0196 1403.72 12.0196V12.0196C1411.47 12.0197 1416.54 20.1247 1413.16 27.0925L1412.48 28.4998Z" fill="url(#paint27_linear_699_2281)"/>
<path d="M1305.83 12.0098C1308.99 5.28511 1316.87 2.22825 1323.74 5.06343L1324.85 5.5197C1333.23 8.97873 1336.73 18.9636 1332.36 26.9057C1297.1 90.9304 1262.38 155.266 1228.22 219.92C1177.93 315.08 1128.87 410.81 1081.06 507.09C1069.11 531.16 1057.23 555.26 1045.43 579.41C1033.62 603.58 1021.88 627.79 1010.23 652.03C986.915 700.51 963.915 749.13 941.235 797.88C1029.35 601.75 1119.24 406.4 1210.91 211.84C1242.34 145.13 1273.99 78.5198 1305.83 12.0098V12.0098Z" fill="url(#paint28_linear_699_2281)"/>
<path d="M1225.76 12.0098C1230.98 12.0098 1234.45 17.4353 1232.25 22.1798C1218.89 51.0316 1205.62 79.9307 1192.48 108.87C1147.98 206.86 1104.7 305.5 1062.73 404.52C1114.1 274.877 1166.24 145.517 1219.14 16.451C1220.24 13.7644 1222.85 12.0098 1225.76 12.0098V12.0098Z" fill="url(#paint29_linear_699_2281)"/>
<path d="M1113.48 18.5C1116.38 11.3692 1124.9 8.29302 1131.63 12.0324V12.0324C1134.7 13.7353 1136.03 17.4276 1134.96 20.7679C1133.22 26.2054 1132.16 30.7986 1129.78 37.0798C1110.68 87.3898 1091.9 137.8 1073.45 188.31C1055 238.82 1036.88 289.42 1019.05 340.23C983.406 441.79 949.066 543.75 916.056 646.07C978.666 440.4 1043.15 235.27 1109.48 30.6998C1111.5 24.4698 1111.46 24.73 1113.48 18.5V18.5Z" fill="url(#paint30_linear_699_2281)"/>
<path d="M1041.48 22.5C1004.19 145.26 972.126 258.02 938.616 381.65C968.564 259.994 999.173 138.494 1030.42 17.1398C1031.19 14.1201 1033.92 12.0098 1037.03 12.0098V12.0098C1040.9 12.0098 1043.64 15.7713 1042.46 19.4479L1041.48 22.5Z" fill="url(#paint31_linear_699_2281)"/>
<path d="M956.796 22.0002C957.952 16.192 963.051 12.0098 968.973 12.0098V12.0098C977.073 12.0098 983.004 19.6399 981.015 27.4918C970.883 67.4862 960.929 107.536 951.186 147.64C900.346 356.83 854.896 566.89 814.706 778.32C852.136 566.59 891.466 355.16 932.706 144.08C940.655 103.372 948.699 62.6816 956.796 22.0002Z" fill="url(#paint32_linear_699_2281)"/>
<path d="M887.811 12.0098C891.318 12.0098 893.969 15.186 893.343 18.6372C891.728 27.5452 890.121 36.4493 888.526 45.3598C869.586 151.27 851.966 257.56 835.696 363.87C850.637 248.137 866.172 132.463 882.242 16.8574C882.628 14.0783 885.005 12.0098 887.811 12.0098V12.0098Z" fill="url(#paint33_linear_699_2281)"/>
<path d="M827.477 25C823.857 52.94 821.807 67.9095 818.377 95.8695C792.147 309.65 771.267 523.79 755.757 738.13C769.66 499.516 785.923 261.009 804.545 22.6479C805.014 16.6481 810.02 12.0195 816.038 12.0195V12.0195C822.923 12.0195 828.273 18.0147 827.493 24.8555L827.477 25Z" fill="url(#paint34_linear_699_2281)"/>
<path d="M678.135 20C677.755 50.46 677.465 72.9398 677.305 103.39C677.015 157.19 677.065 210.97 677.435 264.73C677.625 291.61 677.895 318.49 678.255 345.36C678.615 372.25 679.055 399.17 679.585 426.06C673.959 290.272 669.116 154.533 665.019 18.7666C664.907 15.0681 667.875 12.0098 671.575 12.0098V12.0098C675.198 12.0098 678.135 14.9468 678.135 18.5699V20Z" fill="url(#paint35_linear_699_2281)"/>
<path d="M588.875 23.3652C588.674 17.1534 593.653 12.0077 599.868 12.005V12.005C606.149 12.0022 611.31 16.9635 611.559 23.2401C612.12 37.4231 612.7 51.6047 613.317 65.78C615.657 119.53 618.327 173.25 621.337 226.93C624.347 280.6 627.687 334.25 631.377 387.97C638.757 495.34 647.477 602.56 657.537 709.59C634.277 495.86 612.927 281.9 593.487 67.73C591.797 49.16 590.627 45.08 588.977 26.5L588.875 23.3652Z" fill="url(#paint36_linear_699_2281)"/>
<path d="M453.24 12.0098C457.052 12.0098 460.072 14.7857 460.431 18.5808C460.454 18.8177 460.469 18.9684 460.475 19C468.775 72.2 476.875 119.03 485.835 172.09C503.755 278.21 523.015 384.03 543.595 489.53C509.871 333.732 477.204 177.684 445.556 21.4045C444.573 16.5483 448.286 12.0098 453.24 12.0098V12.0098Z" fill="url(#paint37_linear_699_2281)"/>
<path d="M370.033 27.6304C368.099 19.4578 374.392 11.6553 382.789 11.8147V11.8147C388.793 11.9287 393.918 16.1845 395.139 22.0646C403.869 64.1059 412.806 106.105 421.976 148.07C444.936 253.22 469.216 358.02 494.806 462.43C501.206 488.53 507.686 514.61 514.246 540.67C520.816 566.76 527.466 592.83 534.206 618.87C547.676 670.95 561.476 722.94 575.596 774.82C516.386 568.12 459.036 360.86 403.556 153.07C391.006 106.08 382.836 76.54 370.476 29.5L370.033 27.6304Z" fill="url(#paint38_linear_699_2281)"/>
<path d="M303.477 17C310.307 41.78 316.087 61.5398 323.067 86.2698C352.287 189.81 382.867 293.12 414.687 395.86C372.602 270.558 331.211 145.016 290.504 19.2419C289.276 15.4497 291.728 11.4583 295.665 10.8375V10.8375C298.746 10.3517 301.736 12.1268 302.785 15.0638L303.477 17Z" fill="url(#paint39_linear_699_2281)"/>
<path d="M187.589 27.9153C185.357 18.7645 192.954 10.2023 202.306 11.329V11.329C205.762 11.7455 208.678 14.0971 209.819 17.3865C216.123 35.5624 222.455 53.7285 228.835 71.8698C264.565 173.43 301.515 274.33 339.795 374.93C378.085 475.53 417.625 575.58 458.405 675.07C373.555 477.52 290.485 279.19 209.185 80.0898C200.016 57.631 197.249 52.3033 188.244 30.1594C188.068 29.7275 187.92 29.2726 187.81 28.8196L187.589 27.9153Z" fill="url(#paint40_linear_699_2281)"/>
<path d="M101.414 12.0098C104.862 12.0098 107.974 14.0775 109.313 17.2558C171.802 165.677 237.055 312.826 304.975 458.5C233.574 314.248 163.147 169.505 93.6858 24.2696C90.9668 18.5844 95.1119 12.0098 101.414 12.0098V12.0098Z" fill="url(#paint41_linear_699_2281)"/>
<path d="M27.0345 12.0098C33.6335 12.0098 39.6384 15.8205 42.4543 21.7885C58.9705 56.7919 75.6533 91.7569 92.4951 126.63C115.915 175.12 139.625 223.44 163.635 271.6C211.645 367.91 260.845 463.55 311.215 558.51C361.605 653.51 413.255 747.97 466.005 841.64C358.075 655.68 251.815 468.74 147.215 280.83C101.783 199.212 56.7104 117.438 11.9399 35.5091C10.6637 33.1738 9.99512 30.5551 9.99512 27.8938V27.8938C9.99512 19.1213 17.1066 12.0098 25.8792 12.0098H27.0345Z" fill="url(#paint42_linear_699_2281)"/>
<path d="M49.7554 233.85C103.625 327.09 158.625 419.6 214.745 511.34C146.249 405.043 78.328 298.359 10.9417 191.319C10.3169 190.326 9.98535 189.177 9.98535 188.005V188.005C9.98535 181.62 18.4613 179.373 21.6308 184.915C30.9655 201.239 40.338 217.549 49.7554 233.85Z" fill="url(#paint43_linear_699_2281)"/>
<path d="M28.7651 317.73C146.545 497.97 268.585 674.88 395.195 848.91C266.305 676.83 138.905 503.54 13.0851 329.15C12.6653 328.568 12.2454 327.983 11.8256 327.398C10.6362 325.741 9.99512 323.753 9.99512 321.713V321.713C9.99512 312.033 22.6053 308.294 27.9024 316.396C28.1933 316.841 28.4842 317.286 28.7751 317.73H28.7651Z" fill="url(#paint44_linear_699_2281)"/>
<path d="M74.8254 661.149C93.5454 680.429 112.325 699.649 131.165 718.809C150.025 737.999 168.955 757.119 187.935 776.179C225.895 814.299 264.075 852.179 302.495 889.799C204.987 797.075 107.993 703.798 11.504 609.966C10.5331 609.022 9.98535 607.725 9.98535 606.37V606.37C9.98535 601.849 15.498 599.635 18.627 602.899C37.3019 622.377 56.0249 641.805 74.8154 661.159L74.8254 661.149Z" fill="url(#paint45_linear_699_2281)"/>
<path d="M18.0351 806.81C104.885 870.13 192.725 932.47 281.155 993.59C191.009 933.065 101.14 872.125 11.5281 810.779C10.5687 810.122 9.99512 809.035 9.99512 807.872V807.872C9.99512 804.988 13.2684 803.329 15.5965 805.031C16.4094 805.625 17.2222 806.218 18.0351 806.81Z" fill="url(#paint46_linear_699_2281)"/>
<path d="M240.155 1115.61C163.85 1088.22 87.6337 1060.57 11.5063 1032.65C10.5986 1032.32 9.99512 1031.46 9.99512 1030.49V1030.49C9.99512 1028.86 11.6351 1027.75 13.1479 1028.35C88.5643 1058.17 164.243 1087.26 240.155 1115.62V1115.61Z" fill="url(#paint47_linear_699_2281)"/>
<path d="M190.995 1165.85C131.059 1152.04 71.1627 1138.05 11.2859 1123.94C10.5238 1123.76 9.98535 1123.08 9.98535 1122.29V1122.29C9.98535 1121.19 11.0294 1120.38 12.0987 1120.66C71.5973 1136.15 131.223 1151.22 190.995 1165.86V1165.85Z" fill="url(#paint48_linear_699_2281)"/>
<path d="M185.46 1268.86C124.227 1263.07 63.0087 1257.1 1.79363 1251C1.01453 1250.92 0.391109 1250.32 0.287891 1249.55V1249.55C0.142229 1248.45 1.07076 1247.51 2.16741 1247.65C63.1884 1255.16 124.281 1262.24 185.461 1268.87L185.46 1268.86Z" fill="url(#paint49_linear_699_2281)"/>
<path d="M190.236 1417.26C130.3 1431.07 70.4029 1445.06 10.5261 1459.17C9.76404 1459.35 9.22559 1460.03 9.22559 1460.82V1460.82C9.22559 1461.92 10.2696 1462.73 11.3389 1462.45C70.8375 1446.96 130.463 1431.89 190.236 1417.25V1417.26Z" fill="url(#paint50_linear_699_2281)"/>
<path d="M9.98535 1368.68C9.98535 1367.8 10.662 1367.07 11.5407 1366.99C73.5514 1361.93 135.513 1356.43 197.415 1350.47C135.588 1357.27 73.7311 1363.89 11.8545 1370.37C10.8553 1370.47 9.98535 1369.69 9.98535 1368.68V1368.68Z" fill="url(#paint51_linear_699_2281)"/>
<path d="M9.98535 1552.86C9.98535 1551.85 10.6302 1550.95 11.5874 1550.63C89.5794 1524.4 167.285 1497.43 244.685 1469.72C167.615 1498.44 90.4271 1526.88 13.142 1555.07C11.6082 1555.63 9.98535 1554.49 9.98535 1552.86V1552.86Z" fill="url(#paint52_linear_699_2281)"/>
<path d="M11.4756 1650.5C88.3756 1614.23 163.425 1577.86 239.635 1540.03C164.338 1578.7 88.8843 1617.11 13.3043 1655.25C11.7096 1656.06 9.80483 1655.01 9.63785 1653.23V1653.23C9.54004 1652.19 10.0923 1651.19 11.0283 1650.72L11.4756 1650.5Z" fill="url(#paint53_linear_699_2281)"/>
<path d="M9.98535 1819.35C9.98535 1818.21 10.5472 1817.14 11.488 1816.49C96.3788 1757.91 180.568 1698.31 264.075 1637.65C181.499 1699.5 98.645 1761 15.5229 1822.16C13.2268 1823.84 9.98535 1822.2 9.98535 1819.35V1819.35Z" fill="url(#paint54_linear_699_2281)"/>
<path d="M9.98535 2027.23C9.98535 2025.48 10.704 2023.81 11.9728 2022.6C53.2019 1983.43 94.1689 1944.02 134.845 1904.34C173.305 1866.83 211.585 1829.02 249.625 1790.97C287.655 1752.93 325.445 1714.66 362.975 1676.16C249.782 1795.44 135.762 1913.94 20.9343 2031.69C16.9377 2035.79 9.98535 2032.96 9.98535 2027.23V2027.23Z" fill="url(#paint55_linear_699_2281)"/>
<path d="M9.98535 2243.65C9.98535 2241.82 10.6235 2240.05 11.7892 2238.64C123.129 2104.17 231.806 1967.34 337.455 1828.61C234.029 1969.28 129.558 2109.2 24.0777 2248.39C19.5364 2254.38 9.98535 2251.17 9.98535 2243.65V2243.65Z" fill="url(#paint56_linear_699_2281)"/>
<path d="M10.9756 2376.5C21.7056 2361.88 31.4256 2348.68 42.0956 2334.02C73.7456 2290.51 105.116 2246.81 136.196 2202.94C167.276 2159.07 198.076 2115.01 228.636 2070.69C159.901 2175.52 90.6597 2279.92 20.8699 2383.96C17.4984 2388.98 9.66455 2386.7 9.52507 2380.65V2380.65C9.49301 2379.26 9.9293 2377.9 10.7639 2376.78L10.9756 2376.5Z" fill="url(#paint57_linear_699_2281)"/>
<path d="M9.98535 2486.04C9.98535 2482.98 10.9028 2480 12.6177 2477.47C55.3363 2414.41 97.4785 2350.99 139.025 2287.24C197.785 2197.07 255.315 2106.34 311.775 2014.72C368.235 1923.11 423.515 1830.83 477.585 1737.92C371.855 1925.11 264.425 2111.37 155.315 2296.69C116.543 2362.54 77.5428 2428.27 38.3417 2493.88C30.3899 2507.19 9.98535 2501.55 9.98535 2486.04V2486.04Z" fill="url(#paint58_linear_699_2281)"/>
<path d="M96.7845 2556.24C95.2856 2559.11 92.3146 2560.91 89.0752 2560.91V2560.91C82.3544 2560.91 78.1723 2553.61 81.5641 2547.81C163.726 2407.26 243.168 2265.23 319.826 2121.78C246.477 2267.09 172.12 2411.91 96.7845 2556.24Z" fill="url(#paint59_linear_699_2281)"/>
<path d="M178.816 2560.91C168.162 2560.91 161.287 2549.63 166.157 2540.15C193.483 2486.98 220.443 2433.61 246.996 2380.11C294.846 2283.71 341.436 2186.76 386.776 2089.3C432.136 1991.78 476.286 1893.6 519.136 1795C412.963 2048.71 303.827 2301.25 191.806 2552.48C189.519 2557.61 184.43 2560.91 178.816 2560.91V2560.91Z" fill="url(#paint60_linear_699_2281)"/>
<path d="M348.806 2553.81C347.989 2556.39 345.809 2558.29 343.151 2558.75V2558.75C337.657 2559.71 333.191 2554.36 335.114 2549.12C388.063 2404.99 438.386 2259.97 486.036 2114.14C441.241 2261.95 395.533 2406.62 348.806 2553.81Z" fill="url(#paint61_linear_699_2281)"/>
<path d="M419.825 2560.91C411.934 2560.91 406.295 2553.27 408.608 2545.73C415.714 2522.55 422.758 2499.35 429.734 2476.12C491.644 2269.88 548.204 2062.55 599.574 1853.54C551.294 2063.06 501.104 2272.21 449.044 2480.85C443.122 2504.59 437.168 2528.32 431.196 2552.05C429.884 2557.26 425.198 2560.91 419.825 2560.91V2560.91Z" fill="url(#paint62_linear_699_2281)"/>
<path d="M560.977 2553C564.817 2531.78 567.557 2518.47 571.287 2497.23C575.947 2470.71 580.527 2444.18 585.017 2417.65C602.987 2311.5 619.607 2205.19 634.887 2098.75C616.255 2250.71 596.642 2402.6 576.076 2554.36C575.567 2558.12 572.361 2560.92 568.572 2560.92H567.907C563.677 2560.92 560.416 2557.19 560.977 2553V2553Z" fill="url(#paint63_linear_699_2281)"/>
<path d="M638.375 2560.91C631.334 2560.91 625.895 2554.72 626.79 2547.74C630.478 2518.96 634.08 2490.17 637.577 2461.37C663.497 2247.56 684.047 2033.45 699.247 1819.03C685.302 2062.88 668.881 2306.59 650.013 2550.14C649.542 2556.22 644.471 2560.91 638.375 2560.91V2560.91Z" fill="url(#paint64_linear_699_2281)"/>
<path d="M721.089 2555.81C721.026 2558.64 718.709 2560.91 715.872 2560.91V2560.91C712.861 2560.91 710.475 2558.37 710.662 2555.36C717.42 2446.88 722.824 2338.39 726.865 2229.91C725.428 2338.54 723.496 2447.18 721.089 2555.81Z" fill="url(#paint65_linear_699_2281)"/>
<defs>
<linearGradient id="paint0_linear_699_2281" x1="760.486" y1="1978.57" x2="915.936" y2="2018.49" gradientUnits="userSpaceOnUse">
<stop offset="0.0940888" stop-color="#64E3FF"/>
<stop offset="0.424221" stop-color="#BE7CFF"/>
<stop offset="0.731996" stop-color="#FFD876"/>
<stop offset="1" stop-color="#2D7EF9"/>
</linearGradient>
<linearGradient id="paint1_linear_699_2281" x1="827.422" y1="2224.61" x2="1000.99" y2="2346.21" gradientUnits="userSpaceOnUse">
<stop offset="0.0940888" stop-color="#64E3FF"/>
<stop offset="0.424221" stop-color="#BE7CFF"/>
<stop offset="0.731996" stop-color="#FFD876"/>
<stop offset="1" stop-color="#2D7EF9"/>
</linearGradient>
<linearGradient id="paint2_linear_699_2281" x1="814.317" y1="1826.54" x2="1211.98" y2="2296.83" gradientUnits="userSpaceOnUse">
<stop offset="0.0940888" stop-color="#64E3FF"/>
<stop offset="0.424221" stop-color="#BE7CFF"/>
<stop offset="0.731996" stop-color="#FFD876"/>
<stop offset="1" stop-color="#2D7EF9"/>
</linearGradient>
<linearGradient id="paint3_linear_699_2281" x1="930.544" y1="2208.35" x2="1104.19" y2="2487.57" gradientUnits="userSpaceOnUse">
<stop offset="0.0940888" stop-color="#64E3FF"/>
<stop offset="0.424221" stop-color="#BE7CFF"/>
<stop offset="0.731996" stop-color="#FFD876"/>
<stop offset="1" stop-color="#2D7EF9"/>
</linearGradient>
<linearGradient id="paint4_linear_699_2281" x1="882.252" y1="1844.5" x2="1182.66" y2="2491.94" gradientUnits="userSpaceOnUse">
<stop offset="0.0940888" stop-color="#64E3FF"/>
<stop offset="0.424221" stop-color="#BE7CFF"/>
<stop offset="0.731996" stop-color="#FFD876"/>
<stop offset="1" stop-color="#2D7EF9"/>
</linearGradient>
<linearGradient id="paint5_linear_699_2281" x1="1055.61" y1="2103.21" x2="1203.24" y2="2557.97" gradientUnits="userSpaceOnUse">
<stop offset="0.0940888" stop-color="#64E3FF"/>
<stop offset="0.424221" stop-color="#BE7CFF"/>
<stop offset="0.731996" stop-color="#FFD876"/>
<stop offset="1" stop-color="#2D7EF9"/>
</linearGradient>
<linearGradient id="paint6_linear_699_2281" x1="981.819" y1="1840.16" x2="1182.58" y2="2577.06" gradientUnits="userSpaceOnUse">
<stop offset="0.0940888" stop-color="#64E3FF"/>
<stop offset="0.424221" stop-color="#BE7CFF"/>
<stop offset="0.731996" stop-color="#FFD876"/>
<stop offset="1" stop-color="#2D7EF9"/>
</linearGradient>
<linearGradient id="paint7_linear_699_2281" x1="1200.25" y1="2163.19" x2="1299.79" y2="2576" gradientUnits="userSpaceOnUse">
<stop offset="0.0940888" stop-color="#64E3FF"/>
<stop offset="0.424221" stop-color="#BE7CFF"/>
<stop offset="0.731996" stop-color="#FFD876"/>
<stop offset="1" stop-color="#2D7EF9"/>
</linearGradient>
<linearGradient id="paint8_linear_699_2281" x1="1162.48" y1="1999.37" x2="1277.31" y2="2504.16" gradientUnits="userSpaceOnUse">
<stop offset="0.0940888" stop-color="#64E3FF"/>
<stop offset="0.424221" stop-color="#BE7CFF"/>
<stop offset="0.731996" stop-color="#FFD876"/>
<stop offset="1" stop-color="#2D7EF9"/>
</linearGradient>
<linearGradient id="paint9_linear_699_2281" x1="1037.99" y1="1745.82" x2="1162.54" y2="2381.3" gradientUnits="userSpaceOnUse">
<stop offset="0.0940888" stop-color="#64E3FF"/>
<stop offset="0.424221" stop-color="#BE7CFF"/>
<stop offset="0.731996" stop-color="#FFD876"/>
<stop offset="1" stop-color="#2D7EF9"/>
</linearGradient>
<linearGradient id="paint10_linear_699_2281" x1="1182.53" y1="1786.85" x2="1228.8" y2="2100.13" gradientUnits="userSpaceOnUse">
<stop offset="0.0940888" stop-color="#64E3FF"/>
<stop offset="0.424221" stop-color="#BE7CFF"/>
<stop offset="0.731996" stop-color="#FFD876"/>
<stop offset="1" stop-color="#2D7EF9"/>
</linearGradient>
<linearGradient id="paint11_linear_699_2281" x1="1121.07" y1="1631.04" x2="1156.46" y2="1936.83" gradientUnits="userSpaceOnUse">
<stop offset="0.0940888" stop-color="#64E3FF"/>
<stop offset="0.424221" stop-color="#BE7CFF"/>
<stop offset="0.731996" stop-color="#FFD876"/>
<stop offset="1" stop-color="#2D7EF9"/>
</linearGradient>
<linearGradient id="paint12_linear_699_2281" x1="1185.63" y1="1596.1" x2="1202.97" y2="1788.02" gradientUnits="userSpaceOnUse">
<stop offset="0.0940888" stop-color="#64E3FF"/>
<stop offset="0.424221" stop-color="#BE7CFF"/>
<stop offset="0.731996" stop-color="#FFD876"/>
<stop offset="1" stop-color="#2D7EF9"/>
</linearGradient>
<linearGradient id="paint13_linear_699_2281" x1="1259.1" y1="1523.95" x2="1264.72" y2="1616.57" gradientUnits="userSpaceOnUse">
<stop offset="0.0940888" stop-color="#64E3FF"/>
<stop offset="0.424221" stop-color="#BE7CFF"/>
<stop offset="0.731996" stop-color="#FFD876"/>
<stop offset="1" stop-color="#2D7EF9"/>
</linearGradient>
<linearGradient id="paint14_linear_699_2281" x1="1244.29" y1="1419.29" x2="1246.39" y2="1478.22" gradientUnits="userSpaceOnUse">
<stop offset="0.0940888" stop-color="#64E3FF"/>
<stop offset="0.424221" stop-color="#BE7CFF"/>
<stop offset="0.731996" stop-color="#FFD876"/>
<stop offset="1" stop-color="#2D7EF9"/>
</linearGradient>
<linearGradient id="paint15_linear_699_2281" x1="1242.51" y1="1286.95" x2="1242.54" y2="1293.6" gradientUnits="userSpaceOnUse">
<stop offset="0.0940888" stop-color="#64E3FF"/>
<stop offset="0.424221" stop-color="#BE7CFF"/>
<stop offset="0.731996" stop-color="#FFD876"/>
<stop offset="1" stop-color="#2D7EF9"/>
</linearGradient>
<linearGradient id="paint16_linear_699_2281" x1="1206.46" y1="943.991" x2="1213.64" y2="1062.71" gradientUnits="userSpaceOnUse">
<stop offset="0.0940888" stop-color="#64E3FF"/>
<stop offset="0.424221" stop-color="#BE7CFF"/>
<stop offset="0.731996" stop-color="#FFD876"/>
<stop offset="1" stop-color="#2D7EF9"/>
</linearGradient>
<linearGradient id="paint17_linear_699_2281" x1="1209.1" y1="1425.26" x2="1200.61" y2="1306.63" gradientUnits="userSpaceOnUse">
<stop offset="0.0940888" stop-color="#64E3FF"/>
<stop offset="0.424221" stop-color="#BE7CFF"/>
<stop offset="0.731996" stop-color="#FFD876"/>
<stop offset="1" stop-color="#2D7EF9"/>
</linearGradient>
<linearGradient id="paint18_linear_699_2281" x1="1252.76" y1="1310.94" x2="1186.91" y2="1211.89" gradientUnits="userSpaceOnUse">
<stop offset="0.0940888" stop-color="#64E3FF"/>
<stop offset="0.424221" stop-color="#BE7CFF"/>
<stop offset="0.731996" stop-color="#FFD876"/>
<stop offset="1" stop-color="#2D7EF9"/>
</linearGradient>
<linearGradient id="paint19_linear_699_2281" x1="1258.76" y1="1201.94" x2="1192.91" y2="1102.89" gradientUnits="userSpaceOnUse">
<stop offset="0.0940888" stop-color="#64E3FF"/>
<stop offset="0.424221" stop-color="#BE7CFF"/>
<stop offset="0.731996" stop-color="#FFD876"/>
<stop offset="1" stop-color="#2D7EF9"/>
</linearGradient>
<linearGradient id="paint20_linear_699_2281" x1="1229.02" y1="1087.88" x2="1106.25" y2="979.719" gradientUnits="userSpaceOnUse">
<stop offset="0.0940888" stop-color="#64E3FF"/>
<stop offset="0.424221" stop-color="#BE7CFF"/>
<stop offset="0.731996" stop-color="#FFD876"/>
<stop offset="1" stop-color="#2D7EF9"/>
</linearGradient>
<linearGradient id="paint21_linear_699_2281" x1="215.709" y1="1172.88" x2="338.48" y2="1064.72" gradientUnits="userSpaceOnUse">
<stop offset="0.0940888" stop-color="#64E3FF"/>
<stop offset="0.424221" stop-color="#BE7CFF"/>
<stop offset="0.731996" stop-color="#FFD876"/>
<stop offset="1" stop-color="#2D7EF9"/>
</linearGradient>
<linearGradient id="paint22_linear_699_2281" x1="1121.37" y1="700.321" x2="1150.19" y2="976.453" gradientUnits="userSpaceOnUse">
<stop offset="0.0940888" stop-color="#64E3FF"/>
<stop offset="0.424221" stop-color="#BE7CFF"/>
<stop offset="0.731996" stop-color="#FFD876"/>
<stop offset="1" stop-color="#2D7EF9"/>
</linearGradient>
<linearGradient id="paint23_linear_699_2281" x1="1102.07" y1="545.72" x2="1150.37" y2="912.592" gradientUnits="userSpaceOnUse">
<stop offset="0.0940888" stop-color="#64E3FF"/>
<stop offset="0.424221" stop-color="#BE7CFF"/>
<stop offset="0.731996" stop-color="#FFD876"/>
<stop offset="1" stop-color="#2D7EF9"/>
</linearGradient>
<linearGradient id="paint24_linear_699_2281" x1="1245.91" y1="355.068" x2="1288.19" y2="615.599" gradientUnits="userSpaceOnUse">
<stop offset="0.0940888" stop-color="#64E3FF"/>
<stop offset="0.424221" stop-color="#BE7CFF"/>
<stop offset="0.731996" stop-color="#FFD876"/>
<stop offset="1" stop-color="#2D7EF9"/>
</linearGradient>
<linearGradient id="paint25_linear_699_2281" x1="1046.45" y1="248.486" x2="1154.2" y2="835.607" gradientUnits="userSpaceOnUse">
<stop offset="0.0940888" stop-color="#64E3FF"/>
<stop offset="0.424221" stop-color="#BE7CFF"/>
<stop offset="0.731996" stop-color="#FFD876"/>
<stop offset="1" stop-color="#2D7EF9"/>
</linearGradient>
<linearGradient id="paint26_linear_699_2281" x1="1226.34" y1="105.523" x2="1298.97" y2="460.131" gradientUnits="userSpaceOnUse">
<stop offset="0.0940888" stop-color="#64E3FF"/>
<stop offset="0.424221" stop-color="#BE7CFF"/>
<stop offset="0.731996" stop-color="#FFD876"/>
<stop offset="1" stop-color="#2D7EF9"/>
</linearGradient>
<linearGradient id="paint27_linear_699_2281" x1="1101.09" y1="34.7885" x2="1220.67" y2="584.892" gradientUnits="userSpaceOnUse">
<stop offset="0.0940888" stop-color="#64E3FF"/>
<stop offset="0.424221" stop-color="#BE7CFF"/>
<stop offset="0.731996" stop-color="#FFD876"/>
<stop offset="1" stop-color="#2D7EF9"/>
</linearGradient>
<linearGradient id="paint28_linear_699_2281" x1="941.444" y1="33.1931" x2="1141.54" y2="822.298" gradientUnits="userSpaceOnUse">
<stop offset="0.0940888" stop-color="#64E3FF"/>
<stop offset="0.424221" stop-color="#BE7CFF"/>
<stop offset="0.731996" stop-color="#FFD876"/>
<stop offset="1" stop-color="#2D7EF9"/>
</linearGradient>
<linearGradient id="paint29_linear_699_2281" x1="1062.82" y1="28.3388" x2="1172.01" y2="410.274" gradientUnits="userSpaceOnUse">
<stop offset="0.0940888" stop-color="#64E3FF"/>
<stop offset="0.424221" stop-color="#BE7CFF"/>
<stop offset="0.731996" stop-color="#FFD876"/>
<stop offset="1" stop-color="#2D7EF9"/>
</linearGradient>
<linearGradient id="paint30_linear_699_2281" x1="916.171" y1="31.6695" x2="1135.01" y2="625.863" gradientUnits="userSpaceOnUse">
<stop offset="0.0940888" stop-color="#64E3FF"/>
<stop offset="0.424221" stop-color="#BE7CFF"/>
<stop offset="0.731996" stop-color="#FFD876"/>
<stop offset="1" stop-color="#2D7EF9"/>
</linearGradient>
<linearGradient id="paint31_linear_699_2281" x1="938.672" y1="27.3874" x2="1082.46" y2="352.971" gradientUnits="userSpaceOnUse">
<stop offset="0.0940888" stop-color="#64E3FF"/>
<stop offset="0.424221" stop-color="#BE7CFF"/>
<stop offset="0.731996" stop-color="#FFD876"/>
<stop offset="1" stop-color="#2D7EF9"/>
</linearGradient>
<linearGradient id="paint32_linear_699_2281" x1="814.795" y1="43.8895" x2="1162.22" y2="652.023" gradientUnits="userSpaceOnUse">
<stop offset="0.0940888" stop-color="#64E3FF"/>
<stop offset="0.424221" stop-color="#BE7CFF"/>
<stop offset="0.731996" stop-color="#FFD876"/>
<stop offset="1" stop-color="#2D7EF9"/>
</linearGradient>
<linearGradient id="paint33_linear_699_2281" x1="835.727" y1="26.6477" x2="1014.08" y2="261.679" gradientUnits="userSpaceOnUse">
<stop offset="0.0940888" stop-color="#64E3FF"/>
<stop offset="0.424221" stop-color="#BE7CFF"/>
<stop offset="0.731996" stop-color="#FFD876"/>
<stop offset="1" stop-color="#2D7EF9"/>
</linearGradient>
<linearGradient id="paint34_linear_699_2281" x1="755.795" y1="42.2269" x2="1128.03" y2="337.899" gradientUnits="userSpaceOnUse">
<stop offset="0.0940888" stop-color="#64E3FF"/>
<stop offset="0.424221" stop-color="#BE7CFF"/>
<stop offset="0.731996" stop-color="#FFD876"/>
<stop offset="1" stop-color="#2D7EF9"/>
</linearGradient>
<linearGradient id="paint35_linear_699_2281" x1="664.823" y1="29.2349" x2="778.351" y2="61.1439" gradientUnits="userSpaceOnUse">
<stop offset="0.0940888" stop-color="#64E3FF"/>
<stop offset="0.424221" stop-color="#BE7CFF"/>
<stop offset="0.731996" stop-color="#FFD876"/>
<stop offset="1" stop-color="#2D7EF9"/>
</linearGradient>
<linearGradient id="paint36_linear_699_2281" x1="588.543" y1="41.0209" x2="944.6" y2="318.634" gradientUnits="userSpaceOnUse">
<stop offset="0.0940888" stop-color="#64E3FF"/>
<stop offset="0.424221" stop-color="#BE7CFF"/>
<stop offset="0.731996" stop-color="#FFD876"/>
<stop offset="1" stop-color="#2D7EF9"/>
</linearGradient>
<linearGradient id="paint37_linear_699_2281" x1="443.708" y1="31.8754" x2="666.562" y2="399.369" gradientUnits="userSpaceOnUse">
<stop offset="0.0940888" stop-color="#64E3FF"/>
<stop offset="0.424221" stop-color="#BE7CFF"/>
<stop offset="0.731996" stop-color="#FFD876"/>
<stop offset="1" stop-color="#2D7EF9"/>
</linearGradient>
<linearGradient id="paint38_linear_699_2281" x1="366.325" y1="43.2553" x2="672.529" y2="705.046" gradientUnits="userSpaceOnUse">
<stop offset="0.0940888" stop-color="#64E3FF"/>
<stop offset="0.424221" stop-color="#BE7CFF"/>
<stop offset="0.731996" stop-color="#FFD876"/>
<stop offset="1" stop-color="#2D7EF9"/>
</linearGradient>
<linearGradient id="paint39_linear_699_2281" x1="288.233" y1="26.0524" x2="424.959" y2="379.285" gradientUnits="userSpaceOnUse">
<stop offset="0.0940888" stop-color="#64E3FF"/>
<stop offset="0.424221" stop-color="#BE7CFF"/>
<stop offset="0.731996" stop-color="#FFD876"/>
<stop offset="1" stop-color="#2D7EF9"/>
</linearGradient>
<linearGradient id="paint40_linear_699_2281" x1="183.12" y1="36.7096" x2="379.778" y2="677.454" gradientUnits="userSpaceOnUse">
<stop offset="0.0940888" stop-color="#64E3FF"/>
<stop offset="0.424221" stop-color="#BE7CFF"/>
<stop offset="0.731996" stop-color="#FFD876"/>
<stop offset="1" stop-color="#2D7EF9"/>
</linearGradient>
<linearGradient id="paint41_linear_699_2281" x1="87.9388" y1="30.5845" x2="202.763" y2="470.594" gradientUnits="userSpaceOnUse">
<stop offset="0.0940888" stop-color="#64E3FF"/>
<stop offset="0.424221" stop-color="#BE7CFF"/>
<stop offset="0.731996" stop-color="#FFD876"/>
<stop offset="1" stop-color="#2D7EF9"/>
</linearGradient>
<linearGradient id="paint42_linear_699_2281" x1="10.2337" y1="46.5237" x2="201.666" y2="875.587" gradientUnits="userSpaceOnUse">
<stop offset="0.0940888" stop-color="#64E3FF"/>
<stop offset="0.424221" stop-color="#BE7CFF"/>
<stop offset="0.731996" stop-color="#FFD876"/>
<stop offset="1" stop-color="#2D7EF9"/>
</linearGradient>
<linearGradient id="paint43_linear_699_2281" x1="10.0925" y1="178.938" x2="85.1074" y2="527.884" gradientUnits="userSpaceOnUse">
<stop offset="0.0940888" stop-color="#64E3FF"/>
<stop offset="0.424221" stop-color="#BE7CFF"/>
<stop offset="0.731996" stop-color="#FFD876"/>
<stop offset="1" stop-color="#2D7EF9"/>
</linearGradient>
<linearGradient id="paint44_linear_699_2281" x1="10.1967" y1="312.198" x2="115.38" y2="882.255" gradientUnits="userSpaceOnUse">
<stop offset="0.0940888" stop-color="#64E3FF"/>
<stop offset="0.424221" stop-color="#BE7CFF"/>
<stop offset="0.731996" stop-color="#FFD876"/>
<stop offset="1" stop-color="#2D7EF9"/>
</linearGradient>
<linearGradient id="paint45_linear_699_2281" x1="10.1384" y1="606.19" x2="49.4831" y2="912.622" gradientUnits="userSpaceOnUse">
<stop offset="0.0940888" stop-color="#64E3FF"/>
<stop offset="0.424221" stop-color="#BE7CFF"/>
<stop offset="0.731996" stop-color="#FFD876"/>
<stop offset="1" stop-color="#2D7EF9"/>
</linearGradient>
<linearGradient id="paint46_linear_699_2281" x1="10.137" y1="808.945" x2="28.2763" y2="1010.1" gradientUnits="userSpaceOnUse">
<stop offset="0.0940888" stop-color="#64E3FF"/>
<stop offset="0.424221" stop-color="#BE7CFF"/>
<stop offset="0.731996" stop-color="#FFD876"/>
<stop offset="1" stop-color="#2D7EF9"/>
</linearGradient>
<linearGradient id="paint47_linear_699_2281" x1="10.1156" y1="1030.78" x2="14.6529" y2="1123.74" gradientUnits="userSpaceOnUse">
<stop offset="0.0940888" stop-color="#64E3FF"/>
<stop offset="0.424221" stop-color="#BE7CFF"/>
<stop offset="0.731996" stop-color="#FFD876"/>
<stop offset="1" stop-color="#2D7EF9"/>
</linearGradient>
<linearGradient id="paint48_linear_699_2281" x1="10.0801" y1="1122.01" x2="11.6232" y2="1170.12" gradientUnits="userSpaceOnUse">
<stop offset="0.0940888" stop-color="#64E3FF"/>
<stop offset="0.424221" stop-color="#BE7CFF"/>
<stop offset="0.731996" stop-color="#FFD876"/>
<stop offset="1" stop-color="#2D7EF9"/>
</linearGradient>
<linearGradient id="paint49_linear_699_2281" x1="0.3448" y1="1249.26" x2="8.21646" y2="1296.74" gradientUnits="userSpaceOnUse">
<stop offset="0.0940888" stop-color="#64E3FF"/>
<stop offset="0.424221" stop-color="#BE7CFF"/>
<stop offset="0.731996" stop-color="#FFD876"/>
<stop offset="1" stop-color="#2D7EF9"/>
</linearGradient>
<linearGradient id="paint50_linear_699_2281" x1="9.3203" y1="1461.1" x2="10.8635" y2="1412.99" gradientUnits="userSpaceOnUse">
<stop offset="0.0940888" stop-color="#64E3FF"/>
<stop offset="0.424221" stop-color="#BE7CFF"/>
<stop offset="0.731996" stop-color="#FFD876"/>
<stop offset="1" stop-color="#2D7EF9"/>
</linearGradient>
<linearGradient id="paint51_linear_699_2281" x1="10.0834" y1="1351.31" x2="10.371" y2="1372.45" gradientUnits="userSpaceOnUse">
<stop offset="0.0940888" stop-color="#64E3FF"/>
<stop offset="0.424221" stop-color="#BE7CFF"/>
<stop offset="0.731996" stop-color="#FFD876"/>
<stop offset="1" stop-color="#2D7EF9"/>
</linearGradient>
<linearGradient id="paint52_linear_699_2281" x1="10.1082" y1="1473.32" x2="14.3578" y2="1564.17" gradientUnits="userSpaceOnUse">
<stop offset="0.0940888" stop-color="#64E3FF"/>
<stop offset="0.424221" stop-color="#BE7CFF"/>
<stop offset="0.731996" stop-color="#FFD876"/>
<stop offset="1" stop-color="#2D7EF9"/>
</linearGradient>
<linearGradient id="paint53_linear_699_2281" x1="9.59602" y1="1544.89" x2="17.4951" y2="1667.43" gradientUnits="userSpaceOnUse">
<stop offset="0.0940888" stop-color="#64E3FF"/>
<stop offset="0.424221" stop-color="#BE7CFF"/>
<stop offset="0.731996" stop-color="#FFD876"/>
<stop offset="1" stop-color="#2D7EF9"/>
</linearGradient>
<linearGradient id="paint54_linear_699_2281" x1="10.1183" y1="1645.49" x2="28.6514" y2="1842.25" gradientUnits="userSpaceOnUse">
<stop offset="0.0940888" stop-color="#64E3FF"/>
<stop offset="0.424221" stop-color="#BE7CFF"/>
<stop offset="0.731996" stop-color="#FFD876"/>
<stop offset="1" stop-color="#2D7EF9"/>
</linearGradient>
<linearGradient id="paint55_linear_699_2281" x1="10.1701" y1="1691.42" x2="60.2047" y2="2070.86" gradientUnits="userSpaceOnUse">
<stop offset="0.0940888" stop-color="#64E3FF"/>
<stop offset="0.424221" stop-color="#BE7CFF"/>
<stop offset="0.731996" stop-color="#FFD876"/>
<stop offset="1" stop-color="#2D7EF9"/>
</linearGradient>
<linearGradient id="paint56_linear_699_2281" x1="10.1567" y1="1846.85" x2="86.3492" y2="2295.32" gradientUnits="userSpaceOnUse">
<stop offset="0.0940888" stop-color="#64E3FF"/>
<stop offset="0.424221" stop-color="#BE7CFF"/>
<stop offset="0.731996" stop-color="#FFD876"/>
<stop offset="1" stop-color="#2D7EF9"/>
</linearGradient>
<linearGradient id="paint57_linear_699_2281" x1="9.59026" y1="2084.4" x2="73.4457" y2="2419.04" gradientUnits="userSpaceOnUse">
<stop offset="0.0940888" stop-color="#64E3FF"/>
<stop offset="0.424221" stop-color="#BE7CFF"/>
<stop offset="0.731996" stop-color="#FFD876"/>
<stop offset="1" stop-color="#2D7EF9"/>
</linearGradient>
<linearGradient id="paint58_linear_699_2281" x1="10.23" y1="1771.34" x2="186.238" y2="2578.56" gradientUnits="userSpaceOnUse">
<stop offset="0.0940888" stop-color="#64E3FF"/>
<stop offset="0.424221" stop-color="#BE7CFF"/>
<stop offset="0.731996" stop-color="#FFD876"/>
<stop offset="1" stop-color="#2D7EF9"/>
</linearGradient>
<linearGradient id="paint59_linear_699_2281" x1="74.0242" y1="2140.05" x2="173.657" y2="2579.7" gradientUnits="userSpaceOnUse">
<stop offset="0.0940888" stop-color="#64E3FF"/>
<stop offset="0.424221" stop-color="#BE7CFF"/>
<stop offset="0.731996" stop-color="#FFD876"/>
<stop offset="1" stop-color="#2D7EF9"/>
</linearGradient>
<linearGradient id="paint60_linear_699_2281" x1="155.656" y1="1826.86" x2="356.777" y2="2579.3" gradientUnits="userSpaceOnUse">
<stop offset="0.0940888" stop-color="#64E3FF"/>
<stop offset="0.424221" stop-color="#BE7CFF"/>
<stop offset="0.731996" stop-color="#FFD876"/>
<stop offset="1" stop-color="#2D7EF9"/>
</linearGradient>
<linearGradient id="paint61_linear_699_2281" x1="330.858" y1="2132.73" x2="482.393" y2="2547.65" gradientUnits="userSpaceOnUse">
<stop offset="0.0940888" stop-color="#64E3FF"/>
<stop offset="0.424221" stop-color="#BE7CFF"/>
<stop offset="0.731996" stop-color="#FFD876"/>
<stop offset="1" stop-color="#2D7EF9"/>
</linearGradient>
<linearGradient id="paint62_linear_699_2281" x1="404.047" y1="1882.97" x2="686.299" y2="2498.01" gradientUnits="userSpaceOnUse">
<stop offset="0.0940888" stop-color="#64E3FF"/>
<stop offset="0.424221" stop-color="#BE7CFF"/>
<stop offset="0.731996" stop-color="#FFD876"/>
<stop offset="1" stop-color="#2D7EF9"/>
</linearGradient>
<linearGradient id="paint63_linear_699_2281" x1="559.956" y1="2117.98" x2="796.052" y2="2419.73" gradientUnits="userSpaceOnUse">
<stop offset="0.0940888" stop-color="#64E3FF"/>
<stop offset="0.424221" stop-color="#BE7CFF"/>
<stop offset="0.731996" stop-color="#FFD876"/>
<stop offset="1" stop-color="#2D7EF9"/>
</linearGradient>
<linearGradient id="paint64_linear_699_2281" x1="625.135" y1="1849.89" x2="1004.71" y2="2148.81" gradientUnits="userSpaceOnUse">
<stop offset="0.0940888" stop-color="#64E3FF"/>
<stop offset="0.424221" stop-color="#BE7CFF"/>
<stop offset="0.731996" stop-color="#FFD876"/>
<stop offset="1" stop-color="#2D7EF9"/>
</linearGradient>
<linearGradient id="paint65_linear_699_2281" x1="710.324" y1="2243.68" x2="829.142" y2="2290.49" gradientUnits="userSpaceOnUse">
<stop offset="0.0940888" stop-color="#64E3FF"/>
<stop offset="0.424221" stop-color="#BE7CFF"/>
<stop offset="0.731996" stop-color="#FFD876"/>
<stop offset="1" stop-color="#2D7EF9"/>
</linearGradient>
</defs>
</svg>
