<svg width="1973" height="1001" viewBox="0 0 1973 1001" fill="none" xmlns="http://www.w3.org/2000/svg">
<path d="M1959.93 473.911C1804.01 470.623 1657.31 470.603 1501.72 473.802C1655.73 468.287 1809.81 463.925 1963.95 460.675C1966.98 460.611 1969.67 462.597 1970.5 465.511V465.511C1971.74 469.844 1968.42 474.134 1963.91 474.016L1959.93 473.911Z" fill="url(#paint0_linear_113_2)"/>
<path d="M1969.09 411.136C1969.09 413.184 1967.47 414.866 1965.42 414.944C1959.29 415.179 1953.16 415.415 1947.04 415.66C1905.71 417.318 1864.42 419.209 1823.15 421.333C1781.88 423.449 1740.54 425.813 1699.28 428.402C1787.83 420.995 1876.4 413.986 1964.99 407.336C1967.2 407.17 1969.09 408.919 1969.09 411.136V411.136Z" fill="url(#paint1_linear_113_2)"/>
<path d="M1957.24 376.633C1924.99 379.127 1904.61 381.004 1872.4 383.771C1831.23 387.32 1790.1 391.094 1749 395.102C1707.92 399.102 1666.86 403.343 1625.78 407.816C1543.65 416.763 1461.69 426.628 1379.92 437.41C1543.12 413.975 1706.57 391.841 1870.26 371.016C1900.07 367.226 1929.89 363.488 1959.72 359.784C1964.69 359.167 1969.08 363.046 1969.08 368.057V368.057C1969.08 372.455 1965.66 376.097 1961.27 376.376L1957.24 376.633Z" fill="url(#paint2_linear_113_2)"/>
<path d="M1969.09 311.27C1969.09 313.33 1967.57 315.075 1965.53 315.358C1953.96 316.963 1942.39 318.581 1930.83 320.221C1849.08 331.826 1767.54 344.348 1686.24 357.775C1778.79 340.491 1871.47 323.644 1964.24 307.207C1966.77 306.759 1969.09 308.703 1969.09 311.27V311.27Z" fill="url(#paint3_linear_113_2)"/>
<path d="M1969.09 261.673C1969.09 265.823 1966.12 269.381 1962.04 270.135C1933.48 275.414 1904.93 280.805 1876.41 286.318C1714.62 317.57 1554.07 352.398 1394.33 390.904C1553.3 350.5 1712.73 311.364 1872.54 273.515C1901.18 266.73 1929.85 259.999 1958.53 253.298C1963.93 252.038 1969.09 256.133 1969.09 261.673V261.673Z" fill="url(#paint4_linear_113_2)"/>
<path d="M1961.22 146.918C1965.08 145.601 1969.09 148.469 1969.09 152.545V152.545C1969.09 155.184 1967.35 157.507 1964.82 158.252C1842.99 194.102 1721.91 232.093 1601.88 272.139C1721.31 229.655 1841.1 187.919 1961.22 146.918Z" fill="url(#paint5_linear_113_2)"/>
<path d="M1969.09 97.3132C1969.09 101.511 1966.42 105.246 1962.45 106.616C1769.29 173.31 1578.66 245.387 1390.84 322.748C1578.13 242.647 1766.36 164.475 1955.58 88.1916C1962.04 85.586 1969.09 90.3447 1969.09 97.3132V97.3132Z" fill="url(#paint6_linear_113_2)"/>
<path d="M1969.09 32.4498C1969.09 34.7892 1967.67 36.8963 1965.51 37.7828C1859.41 81.2294 1754.23 126.324 1650.01 173.066C1753.26 123.874 1856.93 75.2484 1960.91 27.22C1964.73 25.457 1969.09 28.2453 1969.09 32.4498V32.4498Z" fill="url(#paint7_linear_113_2)"/>
<path d="M1521.19 198.961C1639.27 134.166 1757.93 70.1597 1877.12 6.93495C1878.05 6.44068 1879.09 6.18227 1880.15 6.18227V6.18227C1887.04 6.18227 1889.15 15.5608 1882.92 18.5171C1760.92 76.4054 1640.2 136.63 1521.19 198.961Z" fill="url(#paint8_linear_113_2)"/>
<path d="M1737.72 42.5365C1667.3 81.3032 1597.48 120.83 1528.27 161.111C1493.66 181.251 1459.21 201.577 1424.9 222.101C1390.55 242.645 1356.36 263.375 1322.31 284.289C1470.41 190.639 1619.5 98.3282 1769.59 7.31487C1770.81 6.57771 1772.2 6.18798 1773.62 6.18798V6.18798C1781.69 6.18798 1784.43 16.984 1777.34 20.8444C1764.11 28.0499 1750.9 35.281 1737.72 42.5365Z" fill="url(#paint9_linear_113_2)"/>
<path d="M1551.9 40.6125C1488.62 88.141 1426.04 136.348 1364.18 185.219C1437.29 125.46 1510.77 66.0543 1584.6 6.98798C1585.25 6.46633 1586.06 6.18213 1586.89 6.18213V6.18213C1590.44 6.18213 1591.93 10.703 1589.09 12.8177C1576.67 22.0538 1564.27 31.3176 1551.9 40.6125Z" fill="url(#paint10_linear_113_2)"/>
<path d="M1244.69 227.342C1315.71 153.621 1387.24 80.266 1459.25 7.2708C1459.93 6.57395 1460.87 6.1817 1461.85 6.1817V6.1817C1465.16 6.1817 1466.77 10.2287 1464.36 12.5035C1446.52 29.3878 1428.75 46.3317 1411.06 63.3351C1354.83 117.385 1299.34 172.086 1244.69 227.335V227.342Z" fill="url(#paint11_linear_113_2)"/>
<path d="M1292.68 92.6628C1268.69 122.682 1244.91 152.83 1221.36 183.096C1265.79 124.279 1310.52 65.632 1355.52 7.14743C1355.98 6.53913 1356.71 6.18271 1357.47 6.18271V6.18271C1359.56 6.18271 1360.71 8.6097 1359.39 10.2244C1349.17 22.7007 1338.98 35.2039 1328.84 47.7239C1316.74 62.6716 1304.68 77.6466 1292.68 92.656V92.6628Z" fill="url(#paint12_linear_113_2)"/>
<path d="M1168.95 132.736C1190.06 90.9741 1211.33 49.2722 1232.72 7.6107C1233.17 6.73293 1234.08 6.18102 1235.06 6.18102V6.18102C1237.06 6.18102 1238.32 8.3188 1237.32 10.0468C1232.9 17.632 1227.89 25.1306 1223.74 32.7571C1205.74 65.9339 1186.48 99.3746 1168.95 132.736H1168.95Z" fill="url(#paint13_linear_113_2)"/>
<path d="M1089.5 142.893C1102.53 97.8871 1115.71 52.9282 1129.02 7.99632C1129.34 6.9219 1130.33 6.18487 1131.45 6.18487V6.18487C1133.17 6.18487 1134.39 7.86242 1133.85 9.49653C1119.34 53.864 1103.1 98.3294 1089.5 142.893Z" fill="url(#paint14_linear_113_2)"/>
<path d="M989.996 8.29523C989.996 7.12831 990.942 6.18234 992.109 6.18234V6.18234C993.243 6.18234 994.15 7.12656 994.103 8.25987C992.241 53.5474 990.42 98.8284 989.337 144.109C989.744 98.136 989.312 54.413 989.996 8.4396V8.29523Z" fill="url(#paint15_linear_113_2)"/>
<path d="M727.12 6.18167C728.243 6.18167 729.27 6.81943 729.767 7.82651C756.389 61.7411 781.371 115.407 809.252 168.818C780.797 116.153 752.552 63.3777 724.512 10.5171C723.469 8.55082 724.894 6.18167 727.12 6.18167V6.18167Z" fill="url(#paint16_linear_113_2)"/>
<path d="M1073.25 5.87593C1071.97 5.87599 1070.84 6.70287 1070.45 7.90184C1052.42 63.5144 1050.73 84.0148 1031.01 140.124C1051.5 84.4469 1056.86 64.0779 1076.18 9.97084C1076.89 8.00606 1075.37 5.87585 1073.25 5.87593V5.87593Z" fill="url(#paint17_linear_113_2)"/>
<path d="M900.378 6.85498C898.653 7.36776 897.68 9.00279 898.113 10.6146C913.06 66.2954 922.9 84.972 936.71 142.178C923.699 84.555 918.276 65.3097 905.128 9.37797C904.674 7.44669 902.432 6.24402 900.378 6.85498V6.85498Z" fill="url(#paint18_linear_113_2)"/>
<path d="M815.6 2.66386C814.381 3.24409 813.77 4.52052 814.099 5.74969C829.16 62.0173 839.027 80.6037 852.899 138.067C839.895 80.476 833.367 60.5652 820.187 4.67616C819.748 2.81599 817.436 1.79051 815.6 2.66386V2.66386Z" fill="url(#paint19_linear_113_2)"/>
<path d="M637.752 14.4486C635.867 15.4934 635.213 17.6961 636.251 19.3995C678.66 89.03 702.52 110.953 743.831 182.75C703.295 109.925 683.959 86.8506 643.508 15.8538C642.443 13.9832 639.79 13.3183 637.752 14.4486V14.4486Z" fill="url(#paint20_linear_113_2)"/>
<path d="M705.376 989.107C700.325 991.603 694.698 986.527 697.553 982.033C736.836 920.217 770.448 885.301 809.187 817.973C768.254 891.511 748.938 914.319 707.67 986.97C707.161 987.865 706.356 988.622 705.376 989.107V989.107Z" fill="url(#paint21_linear_113_2)"/>
<path d="M537.865 6.18218C538.883 6.18218 539.849 6.62851 540.509 7.40312C553.674 22.8532 566.884 38.2704 580.159 53.6422C630.584 112.035 681.869 169.915 733.901 227.137C667.253 155.763 601.05 84.045 535.299 11.9954C533.265 9.76607 534.847 6.18218 537.865 6.18218V6.18218Z" fill="url(#paint22_linear_113_2)"/>
<path d="M420.191 6.18245C421.326 6.18245 422.418 6.61491 423.246 7.39172C507.52 86.4666 593.369 164.104 680.901 240.365C592.47 165.44 504.592 89.9824 417.261 14.0124C414.146 11.3031 416.063 6.18245 420.191 6.18245V6.18245Z" fill="url(#paint23_linear_113_2)"/>
<path d="M277.067 6.17939C337.541 52.0569 398.592 97.2631 460.211 141.777C398.024 98.8154 335.267 55.1585 273.419 11.6806C270.781 9.82597 272.094 5.6794 275.319 5.6794V5.6794C275.919 5.6794 276.507 5.84276 277.021 6.15195L277.067 6.17939Z" fill="url(#paint24_linear_113_2)"/>
<path d="M185.69 14.5879C181.636 11.7203 183.665 5.33978 188.63 5.33978H193.022C197.315 5.33978 201.517 6.63307 204.934 9.23285C208.502 11.9485 212.071 14.7885 215.646 17.2462C281.164 62.3016 347.274 106.59 413.961 150.118C447.285 171.868 480.817 193.46 514.495 214.868C548.173 236.269 581.989 257.478 615.944 278.488C478.795 196.249 342.446 112.906 206.927 28.4673C195.024 21.0551 197.577 22.0206 185.69 14.5879V14.5879Z" fill="url(#paint25_linear_113_2)"/>
<path d="M88.1191 6.18225C88.9967 6.18225 89.8571 6.42565 90.6048 6.88528C104.718 15.562 118.847 24.2123 133.004 32.8237C201.329 74.3717 270.345 115.207 339.808 155.193C254.866 108.894 170.203 62.1827 85.8061 15.0645C81.5367 12.6809 83.2294 6.18225 88.1191 6.18225V6.18225Z" fill="url(#paint26_linear_113_2)"/>
<path d="M21.9138 27.6028C89.9001 65.4311 145.853 94.6488 214.892 130.99C286.139 168.497 357.87 205.181 430.069 241.029C290.529 175.052 151.614 107.98 13.3318 39.8532C10.8277 38.6194 9.24221 36.0702 9.24224 33.2786V33.2786C9.2423 28.006 14.6424 24.458 19.4819 26.551L21.9138 27.6028Z" fill="url(#paint27_linear_113_2)"/>
<path d="M9.23432 100.663C4.19038 98.5489 1.90978 92.6697 4.20858 87.7071L4.64777 86.759C7.16313 81.329 13.6551 79.0346 19.027 81.6717C68.8039 106.108 118.825 130.159 169.097 153.829C242.265 188.28 315.872 221.889 389.902 254.641C408.409 262.827 426.94 270.965 445.509 279.049C464.093 287.139 482.708 295.182 501.346 303.163C538.623 319.131 576.007 334.887 613.491 350.424C462.686 290.064 312.481 228.486 162.884 165.688C111.59 144.157 60.3739 122.475 9.23432 100.663V100.663Z" fill="url(#paint28_linear_113_2)"/>
<path d="M9.23438 155.308C9.23438 151.748 12.8509 149.33 16.1413 150.689C38.6288 159.971 61.1537 169.184 83.7101 178.313C159.055 208.797 234.899 238.446 311.036 267.197C211.309 231.99 111.8 196.254 12.5167 160.001C10.5455 159.282 9.23438 157.407 9.23438 155.308V155.308Z" fill="url(#paint29_linear_113_2)"/>
<path d="M13.9426 232.332C8.74213 230.444 6.60147 224.245 9.52883 219.551V219.551C10.7031 217.668 13.0176 216.854 15.1471 217.479C19.6972 218.815 23.3683 219.531 28.5109 221.268C67.1943 234.352 105.955 247.217 144.792 259.856C183.629 272.496 222.535 284.909 261.603 297.123C339.693 321.538 418.09 345.062 496.764 367.676C338.624 324.785 180.899 280.613 23.6053 235.174C18.8151 233.791 19.0151 233.818 14.2249 232.434L13.9426 232.332Z" fill="url(#paint30_linear_113_2)"/>
<path d="M17.3003 281.755C111.691 307.301 198.392 329.263 293.451 352.219C199.817 331.683 106.302 310.693 12.9003 289.268C10.755 288.776 9.23438 286.867 9.23438 284.666V284.666C9.23438 282.051 11.7383 280.163 14.2525 280.883L17.3003 281.755Z" fill="url(#paint31_linear_113_2)"/>
<path d="M16.3092 339.658C12.2163 338.932 9.23438 335.374 9.23438 331.217V331.217C9.23438 325.717 14.34 321.639 19.705 322.851C50.9333 329.903 82.2051 336.831 113.52 343.609C274.367 378.436 435.882 409.572 598.451 437.104C435.652 411.462 273.083 384.519 110.783 356.268C79.2806 350.787 47.7913 345.241 16.3092 339.658Z" fill="url(#paint32_linear_113_2)"/>
<path d="M9.23438 386.955C9.23438 384.571 11.3694 382.753 13.723 383.134C20.775 384.273 27.8235 385.407 34.8772 386.532C116.312 399.506 198.038 411.577 279.78 422.723C190.682 412.474 101.629 401.819 12.6285 390.795C10.69 390.555 9.23438 388.908 9.23438 386.955V386.955Z" fill="url(#paint33_linear_113_2)"/>
<path d="M19.2229 428.355C40.706 430.835 52.2161 432.239 73.7145 434.589C238.09 452.558 402.743 466.861 567.549 477.486C383.811 467.948 200.155 456.789 16.6111 444.008C12.4608 443.719 9.24219 440.268 9.24219 436.108V436.108C9.24219 431.416 13.2966 427.753 17.9638 428.227L19.2229 428.355Z" fill="url(#paint34_linear_113_2)"/>
<path d="M15.3781 530.658C38.7988 530.919 56.0835 531.117 79.4966 531.227C120.863 531.426 162.215 531.391 203.551 531.138C224.219 531.008 244.887 530.823 265.548 530.576C286.223 530.33 306.922 530.028 327.598 529.665C223 533.527 118.439 536.849 13.8561 539.659C11.3238 539.727 9.23438 537.693 9.23438 535.16V535.16C9.23438 532.674 11.2497 530.658 13.7358 530.658H15.3781Z" fill="url(#paint35_linear_113_2)"/>
<path d="M16.9833 591.835C12.7397 591.957 9.2325 588.552 9.2304 584.306V584.306C9.22826 579.991 12.646 576.451 16.9584 576.299C28.1673 575.904 39.3752 575.497 50.5781 575.063C91.9065 573.46 133.212 571.631 174.486 569.569C215.753 567.507 257.005 565.219 298.31 562.691C380.867 557.635 463.309 551.661 545.604 544.77C381.267 560.704 216.753 575.33 52.0774 588.647C37.7989 589.805 34.6618 590.606 20.3756 591.737L16.9833 591.835Z" fill="url(#paint36_linear_113_2)"/>
<path d="M9.23438 684.833C9.23438 682.171 11.1937 680.05 13.8472 679.835C14.2765 679.8 14.5688 679.775 14.6092 679.769C55.5147 674.083 91.5222 668.534 132.32 662.396C213.916 650.12 295.281 636.926 376.4 622.828C256.318 645.986 136.043 668.416 15.5898 690.145C12.2787 690.743 9.23438 688.198 9.23438 684.833V684.833Z" fill="url(#paint37_linear_113_2)"/>
<path d="M19.7707 742.034C14.1847 743.211 8.95815 738.879 9.07979 733.171V733.171C9.16939 728.967 12.2003 725.405 16.3351 724.64C48.8711 718.623 81.3741 712.462 113.85 706.14C194.7 690.411 275.281 673.778 355.562 656.248C375.63 651.864 395.683 647.425 415.721 642.931C435.782 638.43 455.827 633.874 475.849 629.257C515.893 620.03 555.869 610.576 595.759 600.903C436.827 641.465 277.465 680.752 117.695 718.758C81.5642 727.356 58.8511 732.953 22.682 741.42L19.7707 742.034Z" fill="url(#paint38_linear_113_2)"/>
<path d="M13.0718 787.317C32.1251 782.638 47.3184 778.678 66.3334 773.897C145.945 753.88 225.381 732.931 304.377 711.133C207.78 740.038 110.996 768.467 14.0329 796.424C11.473 797.162 8.83794 795.519 8.37365 792.896V792.896C7.98194 790.682 9.28878 788.521 11.4307 787.839L13.0718 787.317Z" fill="url(#paint39_linear_113_2)"/>
<path d="M19.8788 867.051C13.5788 868.42 7.83315 863.114 8.69716 856.726V856.726C9.02459 854.304 10.7282 852.294 13.0625 851.573C27.14 847.223 41.21 842.854 55.2606 838.451C133.35 813.974 210.932 788.662 288.284 762.439C365.635 736.208 442.564 709.121 519.062 681.185C367.165 739.311 214.669 796.218 61.5809 851.912C44.1423 858.256 40.1364 860.126 22.6824 866.442L19.8788 867.051Z" fill="url(#paint40_linear_113_2)"/>
<path d="M9.23438 925.992C9.23438 923.495 10.7837 921.261 13.1213 920.384C127.292 877.559 240.484 832.839 352.541 786.291C241.264 835.364 129.606 883.765 17.567 931.5C13.618 933.183 9.23438 930.285 9.23438 925.992V925.992Z" fill="url(#paint41_linear_113_2)"/>
<path d="M9.23438 976.906C9.23438 972.29 12.0042 968.125 16.2595 966.337C43.3386 954.955 70.3881 943.457 97.3658 931.849C134.65 915.805 171.803 899.563 208.833 883.115C282.886 850.226 356.424 816.522 429.439 782.016C502.484 747.496 575.115 712.114 647.138 675.978C504.153 749.915 360.415 822.708 215.93 894.363C153.123 925.512 90.1952 956.414 27.1481 987.108C25.4492 987.936 23.5844 988.365 21.6948 988.365H20.6935C14.3648 988.365 9.23438 983.235 9.23438 976.906V976.906Z" fill="url(#paint42_linear_113_2)"/>
<path d="M179.808 961.129C251.5 924.225 322.631 886.548 393.17 848.103C311.382 895.058 229.296 941.619 146.935 987.814C146.281 988.18 145.544 988.373 144.794 988.373V988.373C140.188 988.373 138.702 982.169 142.806 980.078C155.149 973.788 167.482 967.473 179.808 961.129Z" fill="url(#paint43_linear_113_2)"/>
<path d="M244.303 975.507C382.89 894.822 518.916 811.219 652.728 724.486C520.416 812.781 387.173 900.056 253.084 986.248C252.55 986.591 252.014 986.934 251.477 987.277C250.367 987.987 249.077 988.365 247.76 988.365V988.365C240.724 988.365 238.224 979.043 244.303 975.5V975.5V975.507Z" fill="url(#paint44_linear_113_2)"/>
<path d="M500.669 943.955C515.494 931.131 530.272 918.265 545.004 905.359C559.759 892.439 574.461 879.471 589.116 866.469C618.426 840.465 655.241 814.31 684.168 787.99C613.074 854.599 541.557 920.857 469.617 986.771C468.492 987.801 467.022 988.373 465.496 988.373V988.373C459.826 988.373 457.222 981.31 461.531 977.624C474.615 966.432 487.668 955.215 500.677 943.962L500.669 943.955Z" fill="url(#paint45_linear_113_2)"/>
<path d="M612.668 982.857C661.355 923.361 716.977 863.187 763.972 802.608C718.216 863.325 672.152 923.859 625.786 984.222C623.779 986.834 620.672 988.365 617.377 988.365V988.365C616.355 988.365 615.328 988.238 614.371 987.878C609.922 986.205 611.301 984.531 612.668 982.857Z" fill="url(#paint46_linear_113_2)"/>
<path d="M857.793 830.695C837.03 882.233 816.068 933.711 794.914 985.13C794.108 987.088 792.201 988.365 790.084 988.365V988.365C786.305 988.365 783.779 984.479 785.347 981.04C808.13 931.087 836.725 880.966 857.801 830.695H857.793Z" fill="url(#paint47_linear_113_2)"/>
<path d="M896.423 864.373C885.961 904.827 880.088 945.254 869.604 985.668C869.19 987.263 867.747 988.373 866.099 988.373V988.373C863.677 988.373 861.934 986.047 862.612 983.722C874.192 944.026 885.472 904.247 896.431 864.373H896.423Z" fill="url(#paint48_linear_113_2)"/>
<path d="M975.627 868.166C971.237 909.545 970.161 951.217 965.68 992.595C965.518 994.097 964.256 995.214 962.729 995.214V995.214C960.836 995.215 959.346 993.528 959.601 991.675C965.269 950.556 970.621 909.39 975.635 868.165L975.627 868.166Z" fill="url(#paint49_linear_113_2)"/>
<path d="M1089.73 864.894C1100.27 905.655 1110.95 946.388 1121.72 987.108C1122 988.161 1122.95 988.895 1124.04 988.895V988.895C1125.64 988.895 1126.8 987.358 1126.34 985.822C1114.49 945.602 1100.83 905.297 1089.72 864.894H1089.73Z" fill="url(#paint50_linear_113_2)"/>
<path d="M1050.85 988.373C1049.48 988.373 1048.34 987.33 1048.22 985.967C1044.45 943.934 1042.91 901.935 1038.38 859.975C1043.54 901.772 1048.56 943.588 1053.48 985.417C1053.66 986.991 1052.43 988.373 1050.85 988.373V988.373Z" fill="url(#paint51_linear_113_2)"/>
<path d="M1191.76 988.373C1190.42 988.373 1189.21 987.539 1188.74 986.28C1168.77 933.186 1151.24 880.286 1130.07 827.593C1151.83 879.627 1173.39 931.739 1194.75 983.916C1195.62 986.042 1194.06 988.373 1191.76 988.373V988.373Z" fill="url(#paint52_linear_113_2)"/>
<path d="M1269.07 987.353C1241.18 934.673 1213.22 883.26 1184.13 831.053C1213.62 882.208 1244.83 932.493 1274.01 983.794C1275.01 985.562 1274.02 987.797 1272.03 988.237L1271.37 988.383C1270.46 988.585 1269.53 988.166 1269.07 987.353V987.353Z" fill="url(#paint53_linear_113_2)"/>
<path d="M1399.64 988.141C1398.31 988.285 1397 987.728 1396.18 986.67C1351.3 928.744 1305.65 871.295 1259.19 814.31C1306.28 870.312 1355.48 925.559 1402.19 981.868C1404.14 984.226 1402.69 987.81 1399.64 988.141V988.141Z" fill="url(#paint54_linear_113_2)"/>
<path d="M1558.46 988.373C1557.28 988.373 1556.16 987.926 1555.3 987.124C1525.14 958.842 1494.8 930.741 1464.25 902.838C1435.41 876.491 1406.34 850.268 1377.08 824.209C1347.83 798.156 1318.4 772.269 1288.8 746.559C1380.28 823.906 1471.17 901.817 1561.48 980.279C1564.7 983.078 1562.73 988.373 1558.46 988.373V988.373Z" fill="url(#paint55_linear_113_2)"/>
<path d="M1724.81 988.373C1723.61 988.373 1722.45 987.99 1721.49 987.28C1618.03 910.957 1512.76 836.461 1406.02 764.041C1513.89 834.706 1621.2 906.083 1727.94 978.147C1732.51 981.235 1730.33 988.373 1724.81 988.373V988.373Z" fill="url(#paint56_linear_113_2)"/>
<path d="M1827.29 987.695C1816.05 980.345 1805.9 973.686 1794.63 966.376C1761.18 944.695 1727.58 923.205 1693.84 901.914C1660.11 880.622 1626.23 859.523 1592.16 838.588C1672.54 885.547 1752.6 932.851 1832.38 980.529C1836.17 982.794 1834.63 988.604 1830.22 988.694V988.694C1829.31 988.713 1828.43 988.454 1827.68 987.954L1827.29 987.695Z" fill="url(#paint57_linear_113_2)"/>
<path d="M1910.92 988.373C1908.95 988.373 1907.02 987.836 1905.34 986.821C1856.72 957.471 1807.82 928.518 1758.66 899.975C1689.33 859.722 1619.57 820.311 1549.12 781.633C1478.68 742.955 1407.73 705.086 1336.29 668.046C1480.22 740.476 1623.44 814.07 1765.93 888.815C1816.04 915.101 1866.05 941.54 1915.98 968.113C1925.88 973.384 1922.13 988.373 1910.92 988.373V988.373Z" fill="url(#paint58_linear_113_2)"/>
<path d="M1965.55 928.936C1967.71 929.94 1969.09 932.106 1969.09 934.487V934.487C1969.09 939.086 1964.21 942.043 1960.13 939.919C1851.7 883.428 1742.12 828.813 1631.44 776.119C1743.19 826.374 1854.55 877.319 1965.55 928.936Z" fill="url(#paint59_linear_113_2)"/>
<path d="M1969.09 873.158C1969.09 880.426 1961.56 885.251 1954.95 882.225C1913.46 863.219 1871.81 844.471 1830.07 826.011C1755.95 793.231 1681.4 761.315 1606.47 730.255C1531.48 699.181 1455.99 668.937 1380.18 639.582C1575.32 712.34 1769.57 787.129 1962.8 863.896C1966.6 865.404 1969.09 869.074 1969.09 873.158V873.158Z" fill="url(#paint60_linear_113_2)"/>
<path d="M1963.88 756.336C1965.7 756.852 1967.08 758.348 1967.44 760.207V760.207C1968.18 763.973 1964.59 767.142 1960.94 765.947C1849.82 729.564 1738.01 694.99 1625.56 662.257C1739.3 692.966 1850.61 724.301 1963.88 756.336Z" fill="url(#paint61_linear_113_2)"/>
<path d="M1969.09 707.85C1969.09 713.206 1963.99 717.094 1958.82 715.682C1940.53 710.684 1922.22 705.73 1903.89 700.825C1745.31 658.414 1585.9 619.668 1425.19 584.477C1586.29 617.551 1747.11 651.933 1907.53 687.597C1925.94 691.689 1944.35 695.804 1962.75 699.93C1966.45 700.761 1969.09 704.052 1969.09 707.85V707.85Z" fill="url(#paint62_linear_113_2)"/>
<path d="M1963.01 610.919C1946.69 608.288 1936.46 606.411 1920.12 603.856C1899.73 600.663 1879.33 597.526 1858.93 594.45C1777.32 582.14 1695.57 570.754 1613.73 560.287C1730.73 573.067 1847.67 586.522 1964.52 600.631C1967.13 600.946 1969.1 603.162 1969.1 605.791V605.791C1969.1 608.905 1966.38 611.32 1963.28 610.952L1963.01 610.919Z" fill="url(#paint63_linear_113_2)"/>
<path d="M1969.09 557.988C1969.09 562.785 1964.91 566.511 1960.14 565.967C1937.62 563.394 1915.09 560.881 1892.55 558.443C1728.15 540.686 1563.52 526.609 1398.65 516.196C1586.42 525.762 1774.07 537.03 1961.61 549.979C1965.82 550.27 1969.09 553.769 1969.09 557.988V557.988Z" fill="url(#paint64_linear_113_2)"/>
<path d="M1965.57 501.243C1967.52 501.282 1969.09 502.874 1969.09 504.826V504.826C1969.09 506.884 1967.36 508.519 1965.3 508.404C1881.73 503.762 1798.15 500.051 1714.58 497.278C1798.24 498.264 1881.91 499.59 1965.57 501.243Z" fill="url(#paint65_linear_113_2)"/>
<defs>
<linearGradient id="paint0_linear_113_2" x1="1521.32" y1="474.247" x2="1546.01" y2="366.38" gradientUnits="userSpaceOnUse">
<stop offset="0.0940888" stop-color="#64E3FF"/>
<stop offset="0.424221" stop-color="#BE7CFF"/>
<stop offset="0.731996" stop-color="#FFD876"/>
<stop offset="1" stop-color="#2D7EF9"/>
</linearGradient>
<linearGradient id="paint1_linear_113_2" x1="1710.5" y1="428.391" x2="1790.13" y2="300.826" gradientUnits="userSpaceOnUse">
<stop offset="0.0940888" stop-color="#64E3FF"/>
<stop offset="0.424221" stop-color="#BE7CFF"/>
<stop offset="0.731996" stop-color="#FFD876"/>
<stop offset="1" stop-color="#2D7EF9"/>
</linearGradient>
<linearGradient id="paint2_linear_113_2" x1="1404.43" y1="437.369" x2="1730.7" y2="127.717" gradientUnits="userSpaceOnUse">
<stop offset="0.0940888" stop-color="#64E3FF"/>
<stop offset="0.424221" stop-color="#BE7CFF"/>
<stop offset="0.731996" stop-color="#FFD876"/>
<stop offset="1" stop-color="#2D7EF9"/>
</linearGradient>
<linearGradient id="paint3_linear_113_2" x1="1698.01" y1="357.748" x2="1898.19" y2="218.012" gradientUnits="userSpaceOnUse">
<stop offset="0.0940888" stop-color="#64E3FF"/>
<stop offset="0.424221" stop-color="#BE7CFF"/>
<stop offset="0.731996" stop-color="#FFD876"/>
<stop offset="1" stop-color="#2D7EF9"/>
</linearGradient>
<linearGradient id="paint4_linear_113_2" x1="1418.24" y1="390.831" x2="1894.15" y2="142.982" gradientUnits="userSpaceOnUse">
<stop offset="0.0940888" stop-color="#64E3FF"/>
<stop offset="0.424221" stop-color="#BE7CFF"/>
<stop offset="0.731996" stop-color="#FFD876"/>
<stop offset="1" stop-color="#2D7EF9"/>
</linearGradient>
<linearGradient id="paint5_linear_113_2" x1="1617.16" y1="272.072" x2="1958.38" y2="147.744" gradientUnits="userSpaceOnUse">
<stop offset="0.0940888" stop-color="#64E3FF"/>
<stop offset="0.424221" stop-color="#BE7CFF"/>
<stop offset="0.731996" stop-color="#FFD876"/>
<stop offset="1" stop-color="#2D7EF9"/>
</linearGradient>
<linearGradient id="paint6_linear_113_2" x1="1414.9" y1="322.622" x2="1971.51" y2="152.418" gradientUnits="userSpaceOnUse">
<stop offset="0.0940888" stop-color="#64E3FF"/>
<stop offset="0.424221" stop-color="#BE7CFF"/>
<stop offset="0.731996" stop-color="#FFD876"/>
<stop offset="1" stop-color="#2D7EF9"/>
</linearGradient>
<linearGradient id="paint7_linear_113_2" x1="1663.28" y1="172.988" x2="1976.22" y2="88.2889" gradientUnits="userSpaceOnUse">
<stop offset="0.0940888" stop-color="#64E3FF"/>
<stop offset="0.424221" stop-color="#BE7CFF"/>
<stop offset="0.731996" stop-color="#FFD876"/>
<stop offset="1" stop-color="#2D7EF9"/>
</linearGradient>
<linearGradient id="paint8_linear_113_2" x1="1537.32" y1="198.86" x2="1920.55" y2="101.012" gradientUnits="userSpaceOnUse">
<stop offset="0.0940888" stop-color="#64E3FF"/>
<stop offset="0.424221" stop-color="#BE7CFF"/>
<stop offset="0.731996" stop-color="#FFD876"/>
<stop offset="1" stop-color="#2D7EF9"/>
</linearGradient>
<linearGradient id="paint9_linear_113_2" x1="1342.36" y1="284.144" x2="1826.34" y2="177.676" gradientUnits="userSpaceOnUse">
<stop offset="0.0940888" stop-color="#64E3FF"/>
<stop offset="0.424221" stop-color="#BE7CFF"/>
<stop offset="0.731996" stop-color="#FFD876"/>
<stop offset="1" stop-color="#2D7EF9"/>
</linearGradient>
<linearGradient id="paint10_linear_113_2" x1="1373.91" y1="185.125" x2="1613.47" y2="145.415" gradientUnits="userSpaceOnUse">
<stop offset="0.0940888" stop-color="#64E3FF"/>
<stop offset="0.424221" stop-color="#BE7CFF"/>
<stop offset="0.731996" stop-color="#FFD876"/>
<stop offset="1" stop-color="#2D7EF9"/>
</linearGradient>
<linearGradient id="paint11_linear_113_2" x1="1254.11" y1="227.226" x2="1488.42" y2="196.788" gradientUnits="userSpaceOnUse">
<stop offset="0.0940888" stop-color="#64E3FF"/>
<stop offset="0.424221" stop-color="#BE7CFF"/>
<stop offset="0.731996" stop-color="#FFD876"/>
<stop offset="1" stop-color="#2D7EF9"/>
</linearGradient>
<linearGradient id="paint12_linear_113_2" x1="1227.24" y1="183.003" x2="1374.5" y2="168.072" gradientUnits="userSpaceOnUse">
<stop offset="0.0940888" stop-color="#64E3FF"/>
<stop offset="0.424221" stop-color="#BE7CFF"/>
<stop offset="0.731996" stop-color="#FFD876"/>
<stop offset="1" stop-color="#2D7EF9"/>
</linearGradient>
<linearGradient id="paint13_linear_113_2" x1="1171.77" y1="132.67" x2="1242.91" y2="127.826" gradientUnits="userSpaceOnUse">
<stop offset="0.0940888" stop-color="#64E3FF"/>
<stop offset="0.424221" stop-color="#BE7CFF"/>
<stop offset="0.731996" stop-color="#FFD876"/>
<stop offset="1" stop-color="#2D7EF9"/>
</linearGradient>
<linearGradient id="paint14_linear_113_2" x1="1091.29" y1="142.821" x2="1136.59" y2="141.009" gradientUnits="userSpaceOnUse">
<stop offset="0.0940888" stop-color="#64E3FF"/>
<stop offset="0.424221" stop-color="#BE7CFF"/>
<stop offset="0.731996" stop-color="#FFD876"/>
<stop offset="1" stop-color="#2D7EF9"/>
</linearGradient>
<linearGradient id="paint15_linear_113_2" x1="989.539" y1="144.037" x2="994.645" y2="144.014" gradientUnits="userSpaceOnUse">
<stop offset="0.0940888" stop-color="#64E3FF"/>
<stop offset="0.424221" stop-color="#BE7CFF"/>
<stop offset="0.731996" stop-color="#FFD876"/>
<stop offset="1" stop-color="#2D7EF9"/>
</linearGradient>
<linearGradient id="paint16_linear_113_2" x1="725.834" y1="168.733" x2="817.031" y2="162.539" gradientUnits="userSpaceOnUse">
<stop offset="0.0940888" stop-color="#64E3FF"/>
<stop offset="0.424221" stop-color="#BE7CFF"/>
<stop offset="0.731996" stop-color="#FFD876"/>
<stop offset="1" stop-color="#2D7EF9"/>
</linearGradient>
<linearGradient id="paint17_linear_113_2" x1="1095.88" y1="166.924" x2="1004.78" y2="174.239" gradientUnits="userSpaceOnUse">
<stop offset="0.0940888" stop-color="#64E3FF"/>
<stop offset="0.424221" stop-color="#BE7CFF"/>
<stop offset="0.731996" stop-color="#FFD876"/>
<stop offset="1" stop-color="#2D7EF9"/>
</linearGradient>
<linearGradient id="paint18_linear_113_2" x1="1007.98" y1="137.016" x2="937.441" y2="189.652" gradientUnits="userSpaceOnUse">
<stop offset="0.0940888" stop-color="#64E3FF"/>
<stop offset="0.424221" stop-color="#BE7CFF"/>
<stop offset="0.731996" stop-color="#FFD876"/>
<stop offset="1" stop-color="#2D7EF9"/>
</linearGradient>
<linearGradient id="paint19_linear_113_2" x1="924.169" y1="132.906" x2="853.63" y2="185.542" gradientUnits="userSpaceOnUse">
<stop offset="0.0940888" stop-color="#64E3FF"/>
<stop offset="0.424221" stop-color="#BE7CFF"/>
<stop offset="0.731996" stop-color="#FFD876"/>
<stop offset="1" stop-color="#2D7EF9"/>
</linearGradient>
<linearGradient id="paint20_linear_113_2" x1="836.472" y1="153.278" x2="763.919" y2="245.712" gradientUnits="userSpaceOnUse">
<stop offset="0.0940888" stop-color="#64E3FF"/>
<stop offset="0.424221" stop-color="#BE7CFF"/>
<stop offset="0.731996" stop-color="#FFD876"/>
<stop offset="1" stop-color="#2D7EF9"/>
</linearGradient>
<linearGradient id="paint21_linear_113_2" x1="901.828" y1="847.444" x2="829.276" y2="755.011" gradientUnits="userSpaceOnUse">
<stop offset="0.0940888" stop-color="#64E3FF"/>
<stop offset="0.424221" stop-color="#BE7CFF"/>
<stop offset="0.731996" stop-color="#FFD876"/>
<stop offset="1" stop-color="#2D7EF9"/>
</linearGradient>
<linearGradient id="paint22_linear_113_2" x1="538.479" y1="227.021" x2="750.204" y2="202.223" gradientUnits="userSpaceOnUse">
<stop offset="0.0940888" stop-color="#64E3FF"/>
<stop offset="0.424221" stop-color="#BE7CFF"/>
<stop offset="0.731996" stop-color="#FFD876"/>
<stop offset="1" stop-color="#2D7EF9"/>
</linearGradient>
<linearGradient id="paint23_linear_113_2" x1="419.606" y1="240.243" x2="700.451" y2="198.746" gradientUnits="userSpaceOnUse">
<stop offset="0.0940888" stop-color="#64E3FF"/>
<stop offset="0.424221" stop-color="#BE7CFF"/>
<stop offset="0.731996" stop-color="#FFD876"/>
<stop offset="1" stop-color="#2D7EF9"/>
</linearGradient>
<linearGradient id="paint24_linear_113_2" x1="273.013" y1="141.706" x2="472.008" y2="105.46" gradientUnits="userSpaceOnUse">
<stop offset="0.0940888" stop-color="#64E3FF"/>
<stop offset="0.424221" stop-color="#BE7CFF"/>
<stop offset="0.731996" stop-color="#FFD876"/>
<stop offset="1" stop-color="#2D7EF9"/>
</linearGradient>
<linearGradient id="paint25_linear_113_2" x1="191.061" y1="278.345" x2="638.71" y2="186.135" gradientUnits="userSpaceOnUse">
<stop offset="0.0940888" stop-color="#64E3FF"/>
<stop offset="0.424221" stop-color="#BE7CFF"/>
<stop offset="0.731996" stop-color="#FFD876"/>
<stop offset="1" stop-color="#2D7EF9"/>
</linearGradient>
<linearGradient id="paint26_linear_113_2" x1="81.1365" y1="155.115" x2="350.972" y2="93.0854" gradientUnits="userSpaceOnUse">
<stop offset="0.0940888" stop-color="#64E3FF"/>
<stop offset="0.424221" stop-color="#BE7CFF"/>
<stop offset="0.731996" stop-color="#FFD876"/>
<stop offset="1" stop-color="#2D7EF9"/>
</linearGradient>
<linearGradient id="paint27_linear_113_2" x1="26.7493" y1="240.915" x2="444.823" y2="138.911" gradientUnits="userSpaceOnUse">
<stop offset="0.0940888" stop-color="#64E3FF"/>
<stop offset="0.424221" stop-color="#BE7CFF"/>
<stop offset="0.731996" stop-color="#FFD876"/>
<stop offset="1" stop-color="#2D7EF9"/>
</linearGradient>
<linearGradient id="paint28_linear_113_2" x1="25.5222" y1="350.281" x2="622.889" y2="180.259" gradientUnits="userSpaceOnUse">
<stop offset="0.0940888" stop-color="#64E3FF"/>
<stop offset="0.424221" stop-color="#BE7CFF"/>
<stop offset="0.731996" stop-color="#FFD876"/>
<stop offset="1" stop-color="#2D7EF9"/>
</linearGradient>
<linearGradient id="paint29_linear_113_2" x1="21.7898" y1="267.135" x2="309.806" y2="174.71" gradientUnits="userSpaceOnUse">
<stop offset="0.0940888" stop-color="#64E3FF"/>
<stop offset="0.424221" stop-color="#BE7CFF"/>
<stop offset="0.731996" stop-color="#FFD876"/>
<stop offset="1" stop-color="#2D7EF9"/>
</linearGradient>
<linearGradient id="paint30_linear_113_2" x1="24.351" y1="367.597" x2="467.477" y2="184.421" gradientUnits="userSpaceOnUse">
<stop offset="0.0940888" stop-color="#64E3FF"/>
<stop offset="0.424221" stop-color="#BE7CFF"/>
<stop offset="0.731996" stop-color="#FFD876"/>
<stop offset="1" stop-color="#2D7EF9"/>
</linearGradient>
<linearGradient id="paint31_linear_113_2" x1="21.0582" y1="352.181" x2="261.217" y2="233.139" gradientUnits="userSpaceOnUse">
<stop offset="0.0940888" stop-color="#64E3FF"/>
<stop offset="0.424221" stop-color="#BE7CFF"/>
<stop offset="0.731996" stop-color="#FFD876"/>
<stop offset="1" stop-color="#2D7EF9"/>
</linearGradient>
<linearGradient id="paint32_linear_113_2" x1="33.7467" y1="437.042" x2="473.245" y2="155.224" gradientUnits="userSpaceOnUse">
<stop offset="0.0940888" stop-color="#64E3FF"/>
<stop offset="0.424221" stop-color="#BE7CFF"/>
<stop offset="0.731996" stop-color="#FFD876"/>
<stop offset="1" stop-color="#2D7EF9"/>
</linearGradient>
<linearGradient id="paint33_linear_113_2" x1="20.4895" y1="422.702" x2="185.537" y2="282.129" gradientUnits="userSpaceOnUse">
<stop offset="0.0940888" stop-color="#64E3FF"/>
<stop offset="0.424221" stop-color="#BE7CFF"/>
<stop offset="0.731996" stop-color="#FFD876"/>
<stop offset="1" stop-color="#2D7EF9"/>
</linearGradient>
<linearGradient id="paint34_linear_113_2" x1="32.4686" y1="477.46" x2="228.573" y2="200.354" gradientUnits="userSpaceOnUse">
<stop offset="0.0940888" stop-color="#64E3FF"/>
<stop offset="0.424221" stop-color="#BE7CFF"/>
<stop offset="0.731996" stop-color="#FFD876"/>
<stop offset="1" stop-color="#2D7EF9"/>
</linearGradient>
<linearGradient id="paint35_linear_113_2" x1="22.4788" y1="539.778" x2="42.2525" y2="460.814" gradientUnits="userSpaceOnUse">
<stop offset="0.0940888" stop-color="#64E3FF"/>
<stop offset="0.424221" stop-color="#BE7CFF"/>
<stop offset="0.731996" stop-color="#FFD876"/>
<stop offset="1" stop-color="#2D7EF9"/>
</linearGradient>
<linearGradient id="paint36_linear_113_2" x1="31.5407" y1="592.034" x2="215.306" y2="327.493" gradientUnits="userSpaceOnUse">
<stop offset="0.0940888" stop-color="#64E3FF"/>
<stop offset="0.424221" stop-color="#BE7CFF"/>
<stop offset="0.731996" stop-color="#FFD876"/>
<stop offset="1" stop-color="#2D7EF9"/>
</linearGradient>
<linearGradient id="paint37_linear_113_2" x1="24.5091" y1="691.255" x2="288.626" y2="511.485" gradientUnits="userSpaceOnUse">
<stop offset="0.0940888" stop-color="#64E3FF"/>
<stop offset="0.424221" stop-color="#BE7CFF"/>
<stop offset="0.731996" stop-color="#FFD876"/>
<stop offset="1" stop-color="#2D7EF9"/>
</linearGradient>
<linearGradient id="paint38_linear_113_2" x1="33.2585" y1="744.263" x2="519.82" y2="491.578" gradientUnits="userSpaceOnUse">
<stop offset="0.0940888" stop-color="#64E3FF"/>
<stop offset="0.424221" stop-color="#BE7CFF"/>
<stop offset="0.731996" stop-color="#FFD876"/>
<stop offset="1" stop-color="#2D7EF9"/>
</linearGradient>
<linearGradient id="paint39_linear_113_2" x1="20.0322" y1="797.759" x2="282.74" y2="683.626" gradientUnits="userSpaceOnUse">
<stop offset="0.0940888" stop-color="#64E3FF"/>
<stop offset="0.424221" stop-color="#BE7CFF"/>
<stop offset="0.731996" stop-color="#FFD876"/>
<stop offset="1" stop-color="#2D7EF9"/>
</linearGradient>
<linearGradient id="paint40_linear_113_2" x1="28.2258" y1="869.768" x2="510.117" y2="703.761" gradientUnits="userSpaceOnUse">
<stop offset="0.0940888" stop-color="#64E3FF"/>
<stop offset="0.424221" stop-color="#BE7CFF"/>
<stop offset="0.731996" stop-color="#FFD876"/>
<stop offset="1" stop-color="#2D7EF9"/>
</linearGradient>
<linearGradient id="paint41_linear_113_2" x1="23.5165" y1="934.971" x2="356.328" y2="837.49" gradientUnits="userSpaceOnUse">
<stop offset="0.0940888" stop-color="#64E3FF"/>
<stop offset="0.424221" stop-color="#BE7CFF"/>
<stop offset="0.731996" stop-color="#FFD876"/>
<stop offset="1" stop-color="#2D7EF9"/>
</linearGradient>
<linearGradient id="paint42_linear_113_2" x1="35.7722" y1="988.202" x2="664.966" y2="825.136" gradientUnits="userSpaceOnUse">
<stop offset="0.0940888" stop-color="#64E3FF"/>
<stop offset="0.424221" stop-color="#BE7CFF"/>
<stop offset="0.731996" stop-color="#FFD876"/>
<stop offset="1" stop-color="#2D7EF9"/>
</linearGradient>
<linearGradient id="paint43_linear_113_2" x1="137.586" y1="988.3" x2="402.847" y2="924.295" gradientUnits="userSpaceOnUse">
<stop offset="0.0940888" stop-color="#64E3FF"/>
<stop offset="0.424221" stop-color="#BE7CFF"/>
<stop offset="0.731996" stop-color="#FFD876"/>
<stop offset="1" stop-color="#2D7EF9"/>
</linearGradient>
<linearGradient id="paint44_linear_113_2" x1="240.049" y1="988.227" x2="674.649" y2="898.222" gradientUnits="userSpaceOnUse">
<stop offset="0.0940888" stop-color="#64E3FF"/>
<stop offset="0.424221" stop-color="#BE7CFF"/>
<stop offset="0.731996" stop-color="#FFD876"/>
<stop offset="1" stop-color="#2D7EF9"/>
</linearGradient>
<linearGradient id="paint45_linear_113_2" x1="466.1" y1="988.268" x2="700.728" y2="954.455" gradientUnits="userSpaceOnUse">
<stop offset="0.0940888" stop-color="#64E3FF"/>
<stop offset="0.424221" stop-color="#BE7CFF"/>
<stop offset="0.731996" stop-color="#FFD876"/>
<stop offset="1" stop-color="#2D7EF9"/>
</linearGradient>
<linearGradient id="paint46_linear_113_2" x1="621.999" y1="988.268" x2="776.346" y2="972.646" gradientUnits="userSpaceOnUse">
<stop offset="0.0940888" stop-color="#64E3FF"/>
<stop offset="0.424221" stop-color="#BE7CFF"/>
<stop offset="0.731996" stop-color="#FFD876"/>
<stop offset="1" stop-color="#2D7EF9"/>
</linearGradient>
<linearGradient id="paint47_linear_113_2" x1="792.569" y1="988.283" x2="863.998" y2="984.369" gradientUnits="userSpaceOnUse">
<stop offset="0.0940888" stop-color="#64E3FF"/>
<stop offset="0.424221" stop-color="#BE7CFF"/>
<stop offset="0.731996" stop-color="#FFD876"/>
<stop offset="1" stop-color="#2D7EF9"/>
</linearGradient>
<linearGradient id="paint48_linear_113_2" x1="862.717" y1="988.308" x2="899.697" y2="986.977" gradientUnits="userSpaceOnUse">
<stop offset="0.0940888" stop-color="#64E3FF"/>
<stop offset="0.424221" stop-color="#BE7CFF"/>
<stop offset="0.731996" stop-color="#FFD876"/>
<stop offset="1" stop-color="#2D7EF9"/>
</linearGradient>
<linearGradient id="paint49_linear_113_2" x1="960.553" y1="994.978" x2="996.812" y2="988.232" gradientUnits="userSpaceOnUse">
<stop offset="0.0940888" stop-color="#64E3FF"/>
<stop offset="0.424221" stop-color="#BE7CFF"/>
<stop offset="0.731996" stop-color="#FFD876"/>
<stop offset="1" stop-color="#2D7EF9"/>
</linearGradient>
<linearGradient id="paint50_linear_113_2" x1="1123.44" y1="988.83" x2="1086.46" y2="987.498" gradientUnits="userSpaceOnUse">
<stop offset="0.0940888" stop-color="#64E3FF"/>
<stop offset="0.424221" stop-color="#BE7CFF"/>
<stop offset="0.731996" stop-color="#FFD876"/>
<stop offset="1" stop-color="#2D7EF9"/>
</linearGradient>
<linearGradient id="paint51_linear_113_2" x1="1039.02" y1="988.306" x2="1055.28" y2="988.058" gradientUnits="userSpaceOnUse">
<stop offset="0.0940888" stop-color="#64E3FF"/>
<stop offset="0.424221" stop-color="#BE7CFF"/>
<stop offset="0.731996" stop-color="#FFD876"/>
<stop offset="1" stop-color="#2D7EF9"/>
</linearGradient>
<linearGradient id="paint52_linear_113_2" x1="1132.84" y1="988.289" x2="1202.65" y2="984.623" gradientUnits="userSpaceOnUse">
<stop offset="0.0940888" stop-color="#64E3FF"/>
<stop offset="0.424221" stop-color="#BE7CFF"/>
<stop offset="0.731996" stop-color="#FFD876"/>
<stop offset="1" stop-color="#2D7EF9"/>
</linearGradient>
<linearGradient id="paint53_linear_113_2" x1="1187.87" y1="988.64" x2="1281.99" y2="981.83" gradientUnits="userSpaceOnUse">
<stop offset="0.0940888" stop-color="#64E3FF"/>
<stop offset="0.424221" stop-color="#BE7CFF"/>
<stop offset="0.731996" stop-color="#FFD876"/>
<stop offset="1" stop-color="#2D7EF9"/>
</linearGradient>
<linearGradient id="paint54_linear_113_2" x1="1265.22" y1="988.282" x2="1416.16" y2="972.324" gradientUnits="userSpaceOnUse">
<stop offset="0.0940888" stop-color="#64E3FF"/>
<stop offset="0.424221" stop-color="#BE7CFF"/>
<stop offset="0.731996" stop-color="#FFD876"/>
<stop offset="1" stop-color="#2D7EF9"/>
</linearGradient>
<linearGradient id="paint55_linear_113_2" x1="1300.53" y1="988.247" x2="1591" y2="945.256" gradientUnits="userSpaceOnUse">
<stop offset="0.0940888" stop-color="#64E3FF"/>
<stop offset="0.424221" stop-color="#BE7CFF"/>
<stop offset="0.731996" stop-color="#FFD876"/>
<stop offset="1" stop-color="#2D7EF9"/>
</linearGradient>
<linearGradient id="paint56_linear_113_2" x1="1420.04" y1="988.256" x2="1762.38" y2="922.976" gradientUnits="userSpaceOnUse">
<stop offset="0.0940888" stop-color="#64E3FF"/>
<stop offset="0.424221" stop-color="#BE7CFF"/>
<stop offset="0.731996" stop-color="#FFD876"/>
<stop offset="1" stop-color="#2D7EF9"/>
</linearGradient>
<linearGradient id="paint57_linear_113_2" x1="1602.7" y1="988.644" x2="1857.68" y2="934.034" gradientUnits="userSpaceOnUse">
<stop offset="0.0940888" stop-color="#64E3FF"/>
<stop offset="0.424221" stop-color="#BE7CFF"/>
<stop offset="0.731996" stop-color="#FFD876"/>
<stop offset="1" stop-color="#2D7EF9"/>
</linearGradient>
<linearGradient id="paint58_linear_113_2" x1="1361.99" y1="988.205" x2="1975.42" y2="838.077" gradientUnits="userSpaceOnUse">
<stop offset="0.0940888" stop-color="#64E3FF"/>
<stop offset="0.424221" stop-color="#BE7CFF"/>
<stop offset="0.731996" stop-color="#FFD876"/>
<stop offset="1" stop-color="#2D7EF9"/>
</linearGradient>
<linearGradient id="paint59_linear_113_2" x1="1645.49" y1="944.504" x2="1979.3" y2="859.596" gradientUnits="userSpaceOnUse">
<stop offset="0.0940888" stop-color="#64E3FF"/>
<stop offset="0.424221" stop-color="#BE7CFF"/>
<stop offset="0.731996" stop-color="#FFD876"/>
<stop offset="1" stop-color="#2D7EF9"/>
</linearGradient>
<linearGradient id="paint60_linear_113_2" x1="1404.68" y1="888.583" x2="1973.37" y2="717.967" gradientUnits="userSpaceOnUse">
<stop offset="0.0940888" stop-color="#64E3FF"/>
<stop offset="0.424221" stop-color="#BE7CFF"/>
<stop offset="0.731996" stop-color="#FFD876"/>
<stop offset="1" stop-color="#2D7EF9"/>
</linearGradient>
<linearGradient id="paint61_linear_113_2" x1="1639.86" y1="768.562" x2="1949.43" y2="641.663" gradientUnits="userSpaceOnUse">
<stop offset="0.0940888" stop-color="#64E3FF"/>
<stop offset="0.424221" stop-color="#BE7CFF"/>
<stop offset="0.731996" stop-color="#FFD876"/>
<stop offset="1" stop-color="#2D7EF9"/>
</linearGradient>
<linearGradient id="paint62_linear_113_2" x1="1447.82" y1="718.422" x2="1900.28" y2="485.366" gradientUnits="userSpaceOnUse">
<stop offset="0.0940888" stop-color="#64E3FF"/>
<stop offset="0.424221" stop-color="#BE7CFF"/>
<stop offset="0.731996" stop-color="#FFD876"/>
<stop offset="1" stop-color="#2D7EF9"/>
</linearGradient>
<linearGradient id="paint63_linear_113_2" x1="1628.52" y1="611.618" x2="1839.7" y2="426.158" gradientUnits="userSpaceOnUse">
<stop offset="0.0940888" stop-color="#64E3FF"/>
<stop offset="0.424221" stop-color="#BE7CFF"/>
<stop offset="0.731996" stop-color="#FFD876"/>
<stop offset="1" stop-color="#2D7EF9"/>
</linearGradient>
<linearGradient id="paint64_linear_113_2" x1="1422.39" y1="566.966" x2="1620.46" y2="284.658" gradientUnits="userSpaceOnUse">
<stop offset="0.0940888" stop-color="#64E3FF"/>
<stop offset="0.424221" stop-color="#BE7CFF"/>
<stop offset="0.731996" stop-color="#FFD876"/>
<stop offset="1" stop-color="#2D7EF9"/>
</linearGradient>
<linearGradient id="paint65_linear_113_2" x1="1725.17" y1="508.609" x2="1754.55" y2="424.894" gradientUnits="userSpaceOnUse">
<stop offset="0.0940888" stop-color="#64E3FF"/>
<stop offset="0.424221" stop-color="#BE7CFF"/>
<stop offset="0.731996" stop-color="#FFD876"/>
<stop offset="1" stop-color="#2D7EF9"/>
</linearGradient>
</defs>
</svg>
