<svg width="983" height="776" viewBox="0 0 983 776" fill="none" xmlns="http://www.w3.org/2000/svg">
<path d="M494.921 99.734C366.375 99.734 262.209 203.901 262.209 332.447C262.209 421.653 312.076 498.67 385.768 538.01L450.595 398.936H539.247L604.075 538.01C677.767 498.67 727.634 421.653 727.634 332.447C727.634 203.901 623.467 99.734 494.921 99.734Z" fill="#D4E3EE"/>
<path d="M655.604 648.271C643.414 634.973 572.492 624.446 492.151 624.446C411.81 624.446 345.874 634.419 333.685 647.717L448.379 401.152C463.339 405.585 476.637 407.801 492.151 407.801C507.665 407.801 526.504 405.585 541.464 401.152L655.604 648.271Z" fill="white"/>
<path d="M334.239 651.042C333.685 651.042 333.685 651.042 333.131 651.042C331.468 650.487 330.914 648.825 332.022 647.163L448.379 397.828C448.933 396.72 450.595 395.612 452.257 396.72C453.919 397.274 454.474 398.936 453.365 400.598L337.009 649.933C336.455 650.487 335.347 651.042 334.239 651.042Z" fill="#231F20"/>
<path d="M655.604 651.042C654.496 651.042 653.388 650.487 652.833 649.379L536.477 400.044C535.923 398.382 536.477 397.274 537.585 396.166C539.247 395.612 540.356 396.166 541.464 397.274L657.82 646.609C658.374 648.271 657.82 649.379 656.712 650.487C656.158 651.042 656.158 651.042 655.604 651.042Z" fill="#231F20"/>
<path d="M605.737 360.151C575.263 389.517 534.815 404.477 494.921 404.477C455.028 404.477 414.58 389.517 384.106 360.151H605.737Z" fill="white"/>
<path d="M494.921 675.975C583.664 675.975 655.604 663.572 655.604 648.271C655.604 632.971 583.664 620.567 494.921 620.567C406.179 620.567 334.239 632.971 334.239 648.271C334.239 663.572 406.179 675.975 494.921 675.975Z" fill="white"/>
<path d="M494.921 678.745C413.472 678.745 331.468 668.218 331.468 648.271C331.468 628.324 413.472 617.797 494.921 617.797C576.371 617.797 658.374 628.324 658.374 648.271C658.374 668.218 576.371 678.745 494.921 678.745ZM494.921 623.338C396.849 623.338 337.009 637.744 337.009 648.271C337.009 658.799 396.849 673.205 494.921 673.205C592.993 673.205 652.833 658.799 652.833 648.271C652.833 637.744 592.993 623.338 494.921 623.338Z" fill="#231F20"/>
<path d="M453.919 506.981H453.365C451.703 506.427 451.149 505.319 451.149 503.657L472.758 403.923C473.312 402.261 474.42 401.706 476.083 401.706C477.745 402.261 478.299 403.369 478.299 405.031L456.69 504.765C456.136 505.873 455.028 506.981 453.919 506.981Z" fill="#231F20"/>
<path d="M441.73 562.389H441.176C439.513 561.835 438.959 560.727 438.959 559.065L448.379 514.738C448.933 513.076 450.041 512.522 451.703 512.522C453.365 513.076 453.919 514.184 453.919 515.846L444.5 560.173C444.5 561.281 443.392 562.389 441.73 562.389Z" fill="#231F20"/>
<path d="M548.113 562.389C547.005 562.389 545.896 561.281 545.342 560.173L535.923 515.846C535.369 514.184 536.477 513.076 538.139 512.522C539.802 512.522 540.91 513.076 541.464 514.738L550.883 559.065C551.437 560.727 550.329 561.835 548.667 562.389C548.113 562.389 548.113 562.389 548.113 562.389Z" fill="#231F20"/>
<path d="M535.923 506.981C534.815 506.981 533.707 505.873 533.153 504.765L511.544 405.031C510.99 403.369 512.098 402.261 513.76 401.706C515.422 401.706 516.53 402.261 517.084 403.923L538.693 503.657C539.247 505.319 538.139 506.427 536.477 506.981C536.477 506.981 536.477 506.981 535.923 506.981Z" fill="#231F20"/>
<path d="M728.742 360.151H261.1C252.789 360.151 245.586 353.502 245.586 344.636C245.586 337.433 250.573 331.339 257.776 329.676L411.81 293.661H578.033L732.067 329.676C739.27 331.339 744.256 337.433 744.256 344.636C744.256 353.502 737.607 360.151 728.742 360.151Z" fill="white"/>
<path d="M566.951 271.498H422.891V232.713C422.891 192.819 455.028 160.683 494.921 160.683C534.815 160.683 566.951 192.819 566.951 232.713V271.498Z" fill="#C7EAFB"/>
<path d="M566.951 277.039H422.891C419.567 277.039 417.35 274.823 417.35 271.498V232.713C417.35 190.049 452.257 155.142 494.921 155.142C537.585 155.142 572.492 190.049 572.492 232.713V271.498C572.492 274.823 570.276 277.039 566.951 277.039ZM428.432 265.957H561.411V232.713C561.411 196.144 531.49 166.223 494.921 166.223C458.352 166.223 428.432 196.144 428.432 232.713V265.957Z" fill="#231F20"/>
<path d="M456.136 196.144C455.582 196.144 454.474 195.589 453.919 195.589C452.811 194.481 452.811 192.819 453.919 191.711C465.001 181.183 479.407 175.089 494.921 175.089C496.583 175.089 497.692 176.197 497.692 177.859C497.692 179.521 496.583 180.629 494.921 180.629C481.069 180.629 467.771 186.17 457.798 195.589C457.798 195.589 456.69 196.144 456.136 196.144Z" fill="#231F20"/>
<path d="M442.284 218.861H441.73C440.068 218.307 439.514 216.644 440.068 215.536C441.176 212.766 441.73 209.996 443.392 207.779C443.946 206.671 445.608 205.563 447.271 206.671C448.379 207.225 449.487 208.887 448.379 210.55C447.271 212.766 446.162 215.536 445.608 217.753C444.5 218.307 443.392 218.861 442.284 218.861Z" fill="#231F20"/>
<path d="M578.033 293.661H411.81V282.58C411.81 276.485 416.796 271.498 422.891 271.498H566.951C573.046 271.498 578.033 276.485 578.033 282.58V293.661Z" fill="white"/>
<path d="M633.441 227.172C633.441 230.496 631.224 232.713 627.9 232.713C624.575 232.713 622.359 230.496 622.359 227.172C622.359 223.847 624.575 221.631 627.9 221.631C631.224 221.631 633.441 223.847 633.441 227.172Z" fill="#231F20"/>
<path d="M633.441 263.187C633.441 264.849 632.333 265.957 630.67 265.957C629.008 265.957 627.9 264.849 627.9 263.187C627.9 261.525 629.008 260.417 630.67 260.417C632.333 260.417 633.441 261.525 633.441 263.187Z" fill="#231F20"/>
<path d="M672.226 213.32C672.226 214.982 671.118 216.09 669.456 216.09C667.794 216.09 666.685 214.982 666.685 213.32C666.685 211.658 667.794 210.55 669.456 210.55C671.118 210.55 672.226 211.658 672.226 213.32Z" fill="#231F20"/>
<path d="M323.157 285.35C323.157 287.012 322.049 288.121 320.387 288.121C318.725 288.121 317.616 287.012 317.616 285.35C317.616 283.688 318.725 282.58 320.387 282.58C322.049 282.58 323.157 283.688 323.157 285.35Z" fill="#231F20"/>
<path d="M633.441 163.453C633.441 165.115 632.333 166.223 630.67 166.223C629.008 166.223 627.9 165.115 627.9 163.453C627.9 161.791 629.008 160.683 630.67 160.683C632.333 160.683 633.441 161.791 633.441 163.453Z" fill="#231F20"/>
<path d="M384.106 191.157C384.106 192.819 382.998 193.927 381.335 193.927C379.673 193.927 378.565 192.819 378.565 191.157C378.565 189.495 379.673 188.386 381.335 188.386C382.998 188.386 384.106 189.495 384.106 191.157Z" fill="#231F20"/>
<path d="M450.595 124.668C450.595 126.33 449.487 127.438 447.825 127.438C446.162 127.438 445.054 126.33 445.054 124.668C445.054 123.005 446.162 121.897 447.825 121.897C449.487 121.897 450.595 123.005 450.595 124.668Z" fill="#231F20"/>
<path d="M334.239 191.157C334.239 192.819 333.131 193.927 331.468 193.927C329.806 193.927 328.698 192.819 328.698 191.157C328.698 189.495 329.806 188.386 331.468 188.386C333.131 188.386 334.239 189.495 334.239 191.157Z" fill="#231F20"/>
<path d="M356.402 263.187C356.402 264.849 355.294 265.957 353.631 265.957C351.969 265.957 350.861 264.849 350.861 263.187C350.861 261.525 351.969 260.417 353.631 260.417C355.294 260.417 356.402 261.525 356.402 263.187Z" fill="#231F20"/>
<path d="M561.411 144.06C561.411 147.385 559.194 149.601 555.87 149.601C552.545 149.601 550.329 147.385 550.329 144.06C550.329 140.736 552.545 138.519 555.87 138.519C559.194 138.519 561.411 140.736 561.411 144.06Z" fill="#231F20"/>
<path d="M350.861 227.172C350.861 230.496 348.645 232.713 345.32 232.713C341.996 232.713 339.779 230.496 339.779 227.172C339.779 223.847 341.996 221.631 345.32 221.631C348.645 221.631 350.861 223.847 350.861 227.172Z" fill="#231F20"/>
<path d="M566.951 265.957H422.891C413.472 265.957 406.269 273.16 406.269 282.58V293.661C406.269 296.986 408.485 299.202 411.81 299.202H578.033C581.357 299.202 583.574 296.986 583.574 293.661V282.58C583.574 273.16 576.371 265.957 566.951 265.957ZM453.365 277.039H469.988V288.12H453.365V277.039ZM447.825 288.12H431.202V277.039H447.825V288.12ZM475.529 277.039H492.151V288.12H475.529V277.039ZM497.692 277.039H514.314V288.12H497.692V277.039ZM519.855 277.039H536.477V288.12H519.855V277.039ZM542.018 277.039H558.64V288.12H542.018V277.039ZM417.35 282.58C417.35 279.255 419.567 277.039 422.891 277.039H425.662V288.12H417.35V282.58ZM572.492 288.12H564.181V277.039H566.951C570.276 277.039 572.492 279.255 572.492 282.58V288.12Z" fill="#231F20"/>
<path d="M528.166 271.498H461.677V232.713C461.677 214.428 476.637 199.468 494.921 199.468C513.206 199.468 528.166 214.428 528.166 232.713V271.498Z" fill="#BBD868"/>
<path d="M528.166 277.039H461.677C458.352 277.039 456.136 274.823 456.136 271.498V232.713C456.136 211.104 473.312 193.927 494.921 193.927C516.53 193.927 533.707 211.104 533.707 232.713V271.498C533.707 274.823 531.49 277.039 528.166 277.039ZM467.217 265.957H522.625V232.713C522.625 217.199 510.435 205.009 494.921 205.009C479.407 205.009 467.217 217.199 467.217 232.713V265.957Z" fill="#231F20"/>
<path d="M494.921 249.335C504.102 249.335 511.544 241.893 511.544 232.713C511.544 223.532 504.102 216.09 494.921 216.09C485.741 216.09 478.299 223.532 478.299 232.713C478.299 241.893 485.741 249.335 494.921 249.335Z" fill="white"/>
<path d="M494.921 252.105C484.394 252.105 475.529 243.24 475.529 232.713C475.529 222.185 484.394 213.32 494.921 213.32C505.449 213.32 514.314 222.185 514.314 232.713C514.314 243.24 505.449 252.105 494.921 252.105ZM494.921 218.861C487.164 218.861 481.069 224.956 481.069 232.713C481.069 240.47 487.164 246.565 494.921 246.565C502.678 246.565 508.773 240.47 508.773 232.713C508.773 224.956 502.678 218.861 494.921 218.861Z" fill="#231F20"/>
<path d="M500.462 238.253C500.462 241.578 498.246 243.794 494.921 243.794C491.597 243.794 489.38 241.578 489.38 238.253C489.38 234.929 491.597 232.713 494.921 232.713C498.246 232.713 500.462 234.929 500.462 238.253Z" fill="#231F20"/>
<path d="M733.729 324.136L579.141 288.12C578.587 288.12 578.033 288.12 578.033 288.12H411.81C411.255 288.12 410.701 288.12 410.701 288.12L256.668 324.136C247.248 326.352 240.6 334.663 240.6 344.636C240.6 356.272 250.019 365.691 261.654 365.691H729.296C740.932 365.691 750.351 356.272 750.351 344.636C749.797 334.663 743.148 326.352 733.729 324.136ZM258.884 335.217L412.364 299.202H577.479L730.958 335.217C734.283 335.771 736.499 337.987 737.607 340.758H732.067C730.958 339.096 729.296 337.987 727.634 337.987C725.418 337.987 723.755 339.096 723.201 340.758H693.835C692.727 339.096 691.065 337.987 689.403 337.987C687.186 337.987 685.524 339.096 684.97 340.758H655.604C653.942 339.096 652.279 337.987 650.063 337.987C647.847 337.987 646.185 339.096 645.63 340.758H616.264C615.156 339.096 613.494 337.987 611.278 337.987C609.061 337.987 607.399 339.096 606.845 340.758H577.479C576.371 339.096 574.708 337.987 572.492 337.987C570.276 337.987 568.614 339.096 568.06 340.758H538.693C537.585 339.096 535.923 337.987 533.707 337.987C531.49 337.987 529.828 339.096 529.274 340.758H499.908C498.8 339.096 497.138 337.987 494.921 337.987C492.705 337.987 491.043 339.096 490.489 340.758H461.123C460.014 339.096 458.352 337.987 456.136 337.987C453.92 337.987 452.257 339.096 451.703 340.758H422.337C421.229 339.096 419.567 337.987 417.35 337.987C415.134 337.987 413.472 339.096 412.918 340.758H383.552C382.443 339.096 380.781 337.987 378.565 337.987C376.349 337.987 374.686 339.096 374.132 340.758H344.766C343.658 339.096 341.996 337.987 339.779 337.987C337.563 337.987 335.901 339.096 335.347 340.758H305.981C304.873 339.096 303.21 337.987 300.994 337.987C298.778 337.987 297.115 339.096 296.561 340.758H267.195C266.087 339.096 264.425 337.987 262.209 337.987C259.992 337.987 258.33 339.096 257.776 340.758H252.235C253.343 337.987 255.56 335.771 258.884 335.217ZM728.742 354.61H261.1C256.114 354.61 252.235 350.731 251.127 346.299H257.222C258.33 347.961 259.992 349.069 261.654 349.069C263.871 349.069 265.533 347.961 266.087 346.299H295.453C296.561 347.961 298.224 349.069 299.886 349.069C301.548 349.069 303.764 347.961 304.318 346.299H333.685C334.793 347.961 336.455 349.069 338.117 349.069C339.779 349.069 341.996 347.961 342.55 346.299H371.916C373.024 347.961 374.686 349.069 376.349 349.069C378.011 349.069 380.227 347.961 380.781 346.299H410.147C411.256 347.961 412.918 349.069 414.58 349.069C416.242 349.069 418.458 347.961 419.013 346.299H448.379C449.487 347.961 451.149 349.069 452.811 349.069C454.474 349.069 456.69 347.961 457.244 346.299H486.61C487.718 347.961 489.381 349.069 491.043 349.069C493.259 349.069 494.921 347.961 495.475 346.299H524.841C525.95 347.961 527.612 349.069 529.274 349.069C531.49 349.069 533.153 347.961 533.707 346.299H563.073C564.181 347.961 565.843 349.069 567.505 349.069C569.722 349.069 571.384 347.961 571.938 346.299H601.304C602.412 347.961 604.075 349.069 605.737 349.069C607.953 349.069 609.615 347.961 610.169 346.299H639.536C640.644 347.961 642.306 349.069 643.968 349.069C646.185 349.069 647.847 347.961 648.401 346.299H677.767C678.875 347.961 680.537 349.069 682.2 349.069C684.416 349.069 686.078 347.961 686.632 346.299H715.998C717.107 347.961 718.769 349.069 720.431 349.069C722.647 349.069 724.31 347.961 724.864 346.299H730.958C737.607 350.731 733.729 354.61 728.742 354.61Z" fill="#231F20"/>
<path d="M755.338 651.042H672.226C670.564 651.042 669.456 649.933 669.456 648.271C669.456 646.609 670.564 645.501 672.226 645.501H755.338C757 645.501 758.108 646.609 758.108 648.271C758.108 649.933 757 651.042 755.338 651.042Z" fill="#231F20"/>
<path d="M317.616 651.042H234.505C232.842 651.042 231.734 649.933 231.734 648.271C231.734 646.609 232.842 645.501 234.505 645.501H317.616C319.279 645.501 320.387 646.609 320.387 648.271C320.387 649.933 319.279 651.042 317.616 651.042Z" fill="#231F20"/>
<path d="M716.552 293.661C725.733 293.661 733.175 286.219 733.175 277.039C733.175 267.859 725.733 260.417 716.552 260.417C707.372 260.417 699.93 267.859 699.93 277.039C699.93 286.219 707.372 293.661 716.552 293.661Z" fill="white"/>
<path d="M716.552 296.432C714.89 296.432 713.782 295.324 713.782 293.661C713.782 285.904 707.687 279.809 699.93 279.809C698.268 279.809 697.16 278.701 697.16 277.039C697.16 275.377 698.268 274.269 699.93 274.269C707.687 274.269 713.782 268.174 713.782 260.417C713.782 258.754 714.89 257.646 716.552 257.646C718.215 257.646 719.323 258.754 719.323 260.417C719.323 268.174 725.418 274.269 733.175 274.269C734.837 274.269 735.945 275.377 735.945 277.039C735.945 278.701 734.837 279.809 733.175 279.809C725.418 279.809 719.323 285.904 719.323 293.661C719.323 295.324 718.215 296.432 716.552 296.432ZM709.903 277.039C712.674 278.701 714.89 280.918 716.552 283.688C718.215 280.918 720.431 278.701 723.201 277.039C720.431 275.377 718.215 273.16 716.552 270.39C714.89 273.16 712.674 275.377 709.903 277.039Z" fill="#231F20"/>
<path d="M306.535 265.957C309.595 265.957 312.076 263.477 312.076 260.417C312.076 257.357 309.595 254.876 306.535 254.876C303.475 254.876 300.994 257.357 300.994 260.417C300.994 263.477 303.475 265.957 306.535 265.957Z" fill="white"/>
<path d="M306.535 268.728C304.873 268.728 303.764 267.62 303.764 265.957C303.764 264.295 302.656 263.187 300.994 263.187C299.332 263.187 298.224 262.079 298.224 260.417C298.224 258.754 299.332 257.646 300.994 257.646C302.656 257.646 303.764 256.538 303.764 254.876C303.764 253.214 304.873 252.105 306.535 252.105C308.197 252.105 309.305 253.214 309.305 254.876C309.305 256.538 310.413 257.646 312.076 257.646C313.738 257.646 314.846 258.754 314.846 260.417C314.846 262.079 313.738 263.187 312.076 263.187C310.413 263.187 309.305 264.295 309.305 265.957C309.305 267.62 308.197 268.728 306.535 268.728Z" fill="#231F20"/>
<path d="M600.196 177.305C603.256 177.305 605.737 174.824 605.737 171.764C605.737 168.704 603.256 166.223 600.196 166.223C597.136 166.223 594.655 168.704 594.655 171.764C594.655 174.824 597.136 177.305 600.196 177.305Z" fill="white"/>
<path d="M600.196 180.075C598.534 180.075 597.426 178.967 597.426 177.305C597.426 175.643 596.317 174.535 594.655 174.535C592.993 174.535 591.885 173.426 591.885 171.764C591.885 170.102 592.993 168.994 594.655 168.994C596.317 168.994 597.426 167.886 597.426 166.223C597.426 164.561 598.534 163.453 600.196 163.453C601.858 163.453 602.966 164.561 602.966 166.223C602.966 167.886 604.075 168.994 605.737 168.994C607.399 168.994 608.507 170.102 608.507 171.764C608.507 173.426 607.399 174.535 605.737 174.535C604.075 174.535 602.966 175.643 602.966 177.305C602.966 178.967 601.858 180.075 600.196 180.075Z" fill="#231F20"/>
<path d="M666.685 249.335C669.745 249.335 672.226 246.854 672.226 243.794C672.226 240.734 669.745 238.253 666.685 238.253C663.625 238.253 661.145 240.734 661.145 243.794C661.145 246.854 663.625 249.335 666.685 249.335Z" fill="white"/>
<path d="M666.685 252.105C665.023 252.105 663.915 250.997 663.915 249.335C663.915 247.673 662.807 246.565 661.145 246.565C659.482 246.565 658.374 245.456 658.374 243.794C658.374 242.132 659.482 241.024 661.145 241.024C662.807 241.024 663.915 239.916 663.915 238.253C663.915 236.591 665.023 235.483 666.685 235.483C668.348 235.483 669.456 236.591 669.456 238.253C669.456 239.916 670.564 241.024 672.226 241.024C673.888 241.024 674.997 242.132 674.997 243.794C674.997 245.456 673.888 246.565 672.226 246.565C670.564 246.565 669.456 247.673 669.456 249.335C669.456 250.997 668.348 252.105 666.685 252.105Z" fill="#231F20"/>
<path d="M367.483 160.683C376.664 160.683 384.106 153.241 384.106 144.06C384.106 134.88 376.664 127.438 367.483 127.438C358.303 127.438 350.861 134.88 350.861 144.06C350.861 153.241 358.303 160.683 367.483 160.683Z" fill="white"/>
<path d="M367.483 163.453C365.821 163.453 364.713 162.345 364.713 160.683C364.713 152.926 358.618 146.831 350.861 146.831C349.199 146.831 348.091 145.722 348.091 144.06C348.091 142.398 349.199 141.29 350.861 141.29C358.618 141.29 364.713 135.195 364.713 127.438C364.713 125.776 365.821 124.668 367.483 124.668C369.146 124.668 370.254 125.776 370.254 127.438C370.254 135.195 376.349 141.29 384.106 141.29C385.768 141.29 386.876 142.398 386.876 144.06C386.876 145.722 385.768 146.831 384.106 146.831C376.349 146.831 370.254 152.926 370.254 160.683C370.254 162.345 369.146 163.453 367.483 163.453ZM360.834 144.06C363.605 145.722 365.821 147.939 367.483 150.709C369.146 147.939 371.362 145.722 374.132 144.06C371.362 142.398 369.146 140.182 367.483 137.411C365.821 140.182 363.605 142.398 360.834 144.06Z" fill="#231F20"/>
<path d="M610.724 357.934C610.169 355.718 607.953 354.61 605.737 354.61H384.106C381.889 354.61 379.673 355.718 379.119 357.934C378.011 360.151 378.565 362.367 380.227 364.029C410.701 393.949 451.703 410.018 494.921 410.018C538.139 410.018 579.141 393.949 609.615 364.029C611.278 362.367 611.832 360.151 610.724 357.934ZM444.5 390.625H545.342C529.274 396.166 512.098 398.936 494.921 398.936C477.191 398.936 460.568 396.166 444.5 390.625ZM559.194 385.084H430.648C419.567 380.097 408.485 373.448 399.066 365.691H591.331C581.357 373.448 570.83 380.097 559.194 385.084Z" fill="#231F20"/>
<path d="M167.369 459.784C182.258 459.784 193.2 450.635 193.2 433.414V408.479H207.91C222.082 408.479 230.154 399.689 230.154 386.953C230.154 374.216 222.261 365.247 207.91 365.247H193.2V232.321C193.2 208.103 175.979 193.214 148.533 193.214C126.648 193.214 113.552 202.184 95.6136 229.63C67.4497 271.427 41.6179 310.892 23.8586 342.823C15.7861 356.995 12.5571 367.041 12.5571 378.163C12.5571 396.281 25.6524 408.479 45.2057 408.479H141.716V433.414C141.716 450.635 152.479 459.784 167.369 459.784ZM142.793 366.682H59.9155V365.247C80.9038 326.14 104.762 289.725 141.716 236.447H142.793V366.682Z" fill="white"/>
<path d="M193.2 408.479V403.231H187.952V408.479H193.2ZM193.2 365.247H187.952V370.495H193.2V365.247ZM95.6136 229.63L99.9661 232.563L99.9867 232.532L100.007 232.501L95.6136 229.63ZM23.8586 342.823L28.419 345.421L28.4322 345.398L28.4452 345.374L23.8586 342.823ZM141.716 408.479H146.965V403.231H141.716V408.479ZM142.793 366.682V371.93H148.041V366.682H142.793ZM59.9155 366.682H54.6671V371.93H59.9155V366.682ZM59.9155 365.247L55.291 362.765L54.6671 363.928V365.247H59.9155ZM141.716 236.447V231.198H138.969L137.404 233.455L141.716 236.447ZM142.793 236.447H148.041V231.198H142.793V236.447ZM167.369 465.033C175.878 465.033 183.745 462.404 189.514 456.832C195.318 451.226 198.449 443.172 198.449 433.414H187.952C187.952 440.878 185.612 446.008 182.222 449.282C178.797 452.59 173.748 454.536 167.369 454.536V465.033ZM198.449 433.414V408.479H187.952V433.414H198.449ZM193.2 413.728H207.91V403.231H193.2V413.728ZM207.91 413.728C216.099 413.728 223.097 411.164 228.058 406.203C233.01 401.251 235.403 394.439 235.403 386.953H224.906C224.906 392.203 223.263 396.154 220.635 398.781C218.017 401.4 213.893 403.231 207.91 403.231V413.728ZM235.403 386.953C235.403 379.502 233.077 372.652 228.158 367.646C223.218 362.617 216.204 359.999 207.91 359.999V370.495C213.967 370.495 218.076 372.361 220.67 375.002C223.285 377.664 224.906 381.667 224.906 386.953H235.403ZM207.91 359.999H193.2V370.495H207.91V359.999ZM198.449 365.247V232.321H187.952V365.247H198.449ZM198.449 232.321C198.449 218.888 193.625 207.597 184.609 199.731C175.678 191.939 163.166 187.966 148.533 187.966V198.463C161.346 198.463 171.168 201.934 177.709 207.641C184.165 213.274 187.952 221.536 187.952 232.321H198.449ZM148.533 187.966C136.767 187.966 126.925 190.408 117.62 196.805C108.517 203.063 100.308 212.855 91.2204 226.758L100.007 232.501C108.858 218.958 116.166 210.542 123.567 205.455C130.766 200.505 138.413 198.463 148.533 198.463V187.966ZM91.2611 226.697C63.102 268.487 37.1532 308.122 19.2719 340.272L28.4452 345.374C46.0826 313.663 71.7975 274.367 99.9661 232.563L91.2611 226.697ZM19.2981 340.226C10.9749 354.838 7.30876 365.797 7.30876 378.163H17.8055C17.8055 368.285 20.5973 359.152 28.419 345.421L19.2981 340.226ZM7.30876 378.163C7.30876 388.546 11.0946 397.564 17.9759 403.96C24.8238 410.324 34.3377 413.728 45.2057 413.728V403.231C36.5204 403.231 29.71 400.535 25.1219 396.271C20.5673 392.038 17.8055 385.898 17.8055 378.163H7.30876ZM45.2057 413.728H141.716V403.231H45.2057V413.728ZM136.468 408.479V433.414H146.965V408.479H136.468ZM136.468 433.414C136.468 443.146 139.538 451.199 145.294 456.814C151.023 462.402 158.856 465.033 167.369 465.033V454.536C160.992 454.536 155.999 452.592 152.624 449.3C149.277 446.035 146.965 440.903 146.965 433.414H136.468ZM142.793 361.434H59.9155V371.93H142.793V361.434ZM65.1638 366.682V365.247H54.6671V366.682H65.1638ZM64.5399 367.729C85.3805 328.898 109.097 292.684 146.029 239.438L137.404 233.455C100.427 286.766 76.4271 323.383 55.291 362.765L64.5399 367.729ZM141.716 241.695H142.793V231.198H141.716V241.695ZM137.544 236.447V366.682H148.041V236.447H137.544Z" fill="black"/>
<path d="M911.588 459.784C926.477 459.784 937.419 450.635 937.419 433.414V408.479H952.129C966.301 408.479 974.373 399.689 974.373 386.953C974.373 374.216 966.48 365.247 952.129 365.247H937.419V232.321C937.419 208.103 920.198 193.214 892.752 193.214C870.867 193.214 857.771 202.184 839.832 229.63C811.669 271.427 785.837 310.892 768.077 342.823C760.005 356.995 756.776 367.041 756.776 378.163C756.776 396.281 769.871 408.479 789.425 408.479H885.935V433.414C885.935 450.635 896.698 459.784 911.588 459.784ZM887.011 366.682H804.134V365.247C825.123 326.14 848.981 289.725 885.935 236.447H887.011V366.682Z" fill="white"/>
<path d="M937.419 408.479V403.231H932.171V408.479H937.419ZM937.419 365.247H932.171V370.495H937.419V365.247ZM839.832 229.63L844.185 232.563L844.206 232.532L844.226 232.501L839.832 229.63ZM768.077 342.823L772.638 345.421L772.651 345.398L772.664 345.374L768.077 342.823ZM885.935 408.479H891.183V403.231H885.935V408.479ZM887.011 366.682V371.93H892.26V366.682H887.011ZM804.134 366.682H798.886V371.93H804.134V366.682ZM804.134 365.247L799.51 362.765L798.886 363.928V365.247H804.134ZM885.935 236.447V231.198H883.188L881.623 233.455L885.935 236.447ZM887.011 236.447H892.26V231.198H887.011V236.447ZM911.588 465.033C920.097 465.033 927.964 462.404 933.733 456.832C939.537 451.226 942.668 443.172 942.668 433.414H932.171C932.171 440.878 929.83 446.008 926.441 449.282C923.016 452.59 917.967 454.536 911.588 454.536V465.033ZM942.668 433.414V408.479H932.171V433.414H942.668ZM937.419 413.728H952.129V403.231H937.419V413.728ZM952.129 413.728C960.318 413.728 967.316 411.164 972.277 406.203C977.229 401.251 979.622 394.439 979.622 386.953H969.125C969.125 392.203 967.481 396.154 964.854 398.781C962.236 401.4 958.112 403.231 952.129 403.231V413.728ZM979.622 386.953C979.622 379.502 977.296 372.652 972.377 367.646C967.437 362.617 960.423 359.999 952.129 359.999V370.495C958.186 370.495 962.295 372.361 964.889 375.002C967.504 377.664 969.125 381.667 969.125 386.953H979.622ZM952.129 359.999H937.419V370.495H952.129V359.999ZM942.668 365.247V232.321H932.171V365.247H942.668ZM942.668 232.321C942.668 218.888 937.844 207.597 928.828 199.731C919.897 191.939 907.385 187.966 892.752 187.966V198.463C905.565 198.463 915.387 201.934 921.928 207.641C928.384 213.274 932.171 221.536 932.171 232.321H942.668ZM892.752 187.966C880.986 187.966 871.143 190.408 861.839 196.805C852.736 203.063 844.526 212.855 835.439 226.758L844.226 232.501C853.077 218.958 860.385 210.542 867.786 205.455C874.985 200.505 882.632 198.463 892.752 198.463V187.966ZM835.48 226.697C807.321 268.487 781.372 308.122 763.491 340.272L772.664 345.374C790.302 313.663 816.016 274.367 844.185 232.563L835.48 226.697ZM763.517 340.226C755.194 354.838 751.528 365.797 751.528 378.163H762.024C762.024 368.285 764.816 359.152 772.638 345.421L763.517 340.226ZM751.528 378.163C751.528 388.546 755.314 397.564 762.195 403.96C769.043 410.324 778.557 413.728 789.425 413.728V403.231C780.739 403.231 773.929 400.535 769.341 396.271C764.786 392.038 762.024 385.898 762.024 378.163H751.528ZM789.425 413.728H885.935V403.231H789.425V413.728ZM880.687 408.479V433.414H891.183V408.479H880.687ZM880.687 433.414C880.687 443.146 883.756 451.199 889.513 456.814C895.242 462.402 903.075 465.033 911.588 465.033V454.536C905.211 454.536 900.218 452.592 896.842 449.3C893.495 446.035 891.183 440.903 891.183 433.414H880.687ZM887.011 361.434H804.134V371.93H887.011V361.434ZM809.383 366.682V365.247H798.886V366.682H809.383ZM808.759 367.729C829.599 328.898 853.316 292.684 890.248 239.438L881.623 233.455C844.646 286.766 820.646 323.383 799.51 362.765L808.759 367.729ZM885.935 241.695H887.011V231.198H885.935V241.695ZM881.763 236.447V366.682H892.26V236.447H881.763Z" fill="black"/>
</svg>
